<?xml version="1.0" standalone="no"?>
<!DOCTYPE svg PUBLIC "-//W3C//DTD SVG 1.1//EN" "http://www.w3.org/Graphics/SVG/1.1/DTD/svg11.dtd" >
<svg xmlns="http://www.w3.org/2000/svg">
<metadata>
This is a custom SVG webfont generated by Font Squirrel.
Copyright   : Copyright c 1985 1987 1990 1994 Adobe Systems Incorporated  All Rights ReservedITC New Baskerville is a registered trademark of International Typeface Corporation
Foundry     : Adobe Systems Incorporated
</metadata>
<defs>
<font id="ITCNewBaskervilleItalic" horiz-adv-x="1064" >
<font-face units-per-em="2048" ascent="1638" descent="-410" />
<missing-glyph horiz-adv-x="532" />
<glyph unicode=" "  horiz-adv-x="532" />
<glyph unicode="&#x09;" horiz-adv-x="532" />
<glyph unicode="&#xa0;" horiz-adv-x="532" />
<glyph unicode="!" horiz-adv-x="614" d="M233 84q0 49 34 81t83 32q45 0 76 -34t31 -79t-33 -78t-78 -33q-47 0 -80 33t-33 78zM414 424l123 704q0 6 7 52.5t13 68t20.5 56t37 50t55.5 15.5q41 0 66.5 -25.5t25.5 -64.5q0 -68 -152 -471l-149 -399z" />
<glyph unicode="&#x22;" horiz-adv-x="942" d="M469 811l106 471q31 137 103 137q51 0 51 -53q0 -33 -37 -125l-162 -393q-31 -80 -51 -80q-18 0 -10 43zM788 811l107 471q31 137 102 137q51 0 52 -53q0 -33 -37 -125l-162 -393q-31 -80 -51 -80q-19 0 -11 43z" />
<glyph unicode="#" d="M227 444v113h230l43 281h-224v112h242l64 420h114l-63 -420h268l64 420h114l-63 -420h192v-112h-211l-43 -281h205v-113h-221l-68 -444h-114l67 444h-268l-70 -444h-114l69 444h-213zM571 557h269l43 281h-269z" />
<glyph unicode="$" d="M147 225q0 33 21.5 58.5t54.5 25.5q35 0 58.5 -26.5t27.5 -61.5q2 -45 6 -68.5t23.5 -47t58.5 -33.5l156 669q-201 106 -201 301q0 135 100.5 220.5t239.5 95.5l39 164h70l-39 -156q104 0 158 -16l41 172h63l-41 -183q78 -27 145.5 -78t67.5 -114q0 -33 -20.5 -51.5 t-53.5 -18.5q-72 0 -80 97q-4 35 -7 49t-18.5 30.5t-45.5 28.5l-121 -516q74 -53 108.5 -81t79.5 -77t63.5 -105.5t18.5 -129.5q0 -184 -131 -287.5t-323 -112.5l-66 -278h-59l63 278q-8 2 -158 25l-71 -303h-64l74 319q-78 27 -158 86t-80 125zM457 51q51 -23 155 -26 l144 600l-146 82zM479 1104q0 -63 26.5 -102t86.5 -82l90 387q-82 -14 -142.5 -68.5t-60.5 -134.5zM649 881l144 -80l116 504q-70 12 -104 12q-37 0 -55 -4zM678 29q117 0 206 89t89 206q0 80 -46 151.5t-118 114.5z" />
<glyph unicode="%" horiz-adv-x="2129" d="M514 967q0 168 123 320.5t287 152.5q66 0 117 -22.5t80.5 -48.5t84 -48.5t123.5 -22.5q201 0 377 199h68l-979 -1647h-84l866 1463l-4 4q-147 -80 -240 -80q-45 0 -159 37q23 -72 22 -141q0 -168 -104.5 -329t-262.5 -161q-139 0 -227 92.5t-88 231.5zM668 897 q0 -76 43 -134t116 -58q94 0 168 81.5t107 183t33 191.5q0 86 -43 151.5t-125 65.5q-86 0 -159 -90t-106.5 -198.5t-33.5 -192.5zM1309 215q0 178 121.5 329.5t295.5 151.5q125 0 196 -83t71 -210q0 -113 -41 -224t-130 -194t-204 -83q-135 0 -222 89t-87 224zM1462 156 q0 -80 42 -136.5t120 -56.5q92 0 166 82t107.5 183.5t33.5 189.5q0 86 -47 151.5t-131 65.5t-153.5 -91t-103.5 -199.5t-34 -188.5z" />
<glyph unicode="&#x26;" horiz-adv-x="2007" d="M287 451q0 160 94 301t242 213q-10 51 -11 92q0 160 116 274.5t273 114.5q63 0 118 -23.5t55 -76.5q0 -33 -24 -55.5t-54.5 -22.5t-53 23.5t-53.5 48t-82 24.5q-94 0 -163.5 -75t-69.5 -171q0 -68 41 -117q43 14 78 15q47 0 86 -21.5t39 -66.5t-39 -75t-86 -30 q-49 0 -82 23.5t-74 71.5q-98 -39 -157.5 -134.5t-59.5 -203.5q0 -145 96 -247t225 -144t271 -42q86 0 170 17.5t161.5 55.5t138 92.5t96.5 132t36 169.5q0 111 -75 162t-189 51q-82 0 -157 -34.5t-75 -106.5q0 -53 43 -53q14 0 45 11t54 11q33 0 56 -19.5t23 -51.5 q0 -49 -41 -82t-90 -33q-68 0 -109.5 44t-41.5 112q0 139 116.5 233t258.5 94q57 0 171.5 -12t172.5 -12q127 0 211 47q117 70 116 186q0 49 -27.5 86t-74.5 37q-20 0 -37.5 -17.5t-30 -37t-39 -36.5t-65.5 -17q-27 0 -48.5 17t-21.5 46q0 53 62.5 96t126.5 43 q96 0 156.5 -60.5t60.5 -156.5q0 -174 -146.5 -276.5t-326.5 -102.5q-12 0 -38 1t-38 1q59 -88 59 -190q0 -186 -117.5 -331.5t-286.5 -217.5t-349 -72q-115 0 -223.5 28t-203 83t-151.5 150.5t-57 216.5z" />
<glyph unicode="'" horiz-adv-x="573" d="M442 811l107 471q31 137 102 137q51 0 51 -53q0 -33 -36 -125l-162 -393q-31 -80 -51 -80q-19 0 -11 43z" />
<glyph unicode="(" horiz-adv-x="696" d="M248 336q0 297 155.5 562t409.5 466l35 -33q-236 -197 -351.5 -500t-115.5 -641q0 -342 141 -583l-39 -25q-104 160 -169.5 366t-65.5 388z" />
<glyph unicode=")" horiz-adv-x="696" d="M135 -385q236 197 351.5 500t115.5 639q0 344 -141 585l39 25q102 -160 168.5 -366.5t66.5 -387.5q0 -295 -155.5 -561t-409.5 -467z" />
<glyph unicode="*" horiz-adv-x="1024" d="M356 885q0 41 30 60.5t71 19.5q20 0 61 -6.5t62 -6.5q33 0 84 11q2 0 10 2t16 3t17.5 4t14.5 7t5 8q0 6 -14.5 21.5t-20.5 19.5q-31 29 -43 40t-34.5 24.5t-53.5 25.5q-109 43 -108 109q0 33 24.5 55.5t57.5 22.5q31 0 53 -21.5t29.5 -38t21.5 -55.5q27 -82 74 -129 q43 -43 51 -43q12 0 26.5 59.5t14.5 83.5q0 20 -5 62.5t-5 62.5q0 39 22.5 68.5t59.5 29.5q33 0 54 -22.5t21 -56.5q0 -43 -53 -105q-51 -63 -70 -125q0 -4 -7 -31.5t-7 -35.5q0 -6 10 -7q16 0 45 9q78 18 146 71q68 55 108 56q33 0 55.5 -25t22.5 -57q0 -41 -29.5 -61.5 t-70.5 -20.5q-20 0 -61.5 7t-61.5 7q-33 0 -84 -10q-2 0 -10 -2t-16.5 -3t-17.5 -4t-14.5 -7.5t-5.5 -10.5t14.5 -20.5t20.5 -18.5q63 -63 131 -90q109 -47 109 -108q0 -33 -24.5 -55.5t-57.5 -22.5q-31 0 -53.5 21.5t-29.5 38t-21 55.5q-29 82 -76 129q-43 43 -49 43 q-14 0 -25 -56q-16 -61 -16 -88q0 -20 5 -60t5 -59q-8 -106 -82 -106q-33 0 -54.5 23.5t-21.5 58.5q0 37 53 104q86 104 86 191q0 6 -4 6q-16 6 -53 -6q-78 -18 -145 -72q-68 -55 -109 -55q-33 0 -55.5 24.5t-22.5 57.5z" />
<glyph unicode="+" d="M209 399v109h399v399h109v-399h399v-109h-399v-399h-109v399h-399z" />
<glyph unicode="," horiz-adv-x="573" d="M74 -293q143 72 200 143q57 70 58 140q-10 -4 -27 -13q-16 -4 -29 -4q-39 0 -68.5 30t-29.5 71q0 51 33 87t82 36q63 0 100 -53.5t37 -120.5q0 -121 -103.5 -216.5t-238.5 -144.5z" />
<glyph unicode="-" horiz-adv-x="491" d="M121 393l16 109h471l-14 -109h-473z" />
<glyph unicode="." horiz-adv-x="573" d="M205 84q0 49 32.5 81t81.5 32q47 0 78 -34t31 -81q0 -43 -33 -76t-76 -33q-47 0 -80.5 32t-33.5 79z" />
<glyph unicode="/" horiz-adv-x="901" d="M86 -276l907 1695h115l-907 -1695h-115z" />
<glyph unicode="0" d="M240 440q0 287 166 574q82 147 201.5 251.5t258.5 104.5q170 0 258 -128t88 -306q0 -141 -43 -299t-114 -285q-82 -152 -205 -265.5t-264 -113.5q-123 0 -204 74t-111.5 174t-30.5 219zM387 244q0 -94 48 -160t138 -66q43 0 83 20.5t70 46.5t62.5 77t50 82.5t43 95t33 85 t27.5 79.5q123 365 123 610q0 94 -46 152.5t-138 58.5q-63 0 -118.5 -36t-91.5 -82t-72 -121.5t-52.5 -123t-38.5 -116.5q-121 -366 -121 -602z" />
<glyph unicode="1" d="M258 -4l12 45q166 6 201 43q35 35 78 203l199 755q25 115 24 123q0 59 -96 60q-20 0 -63.5 -2t-63.5 -2l10 47q250 16 451 112l-244 -909q-2 -6 -26.5 -98t-40 -159t-15.5 -91q0 -14 3 -25.5t11.5 -19.5t15.5 -13.5t21.5 -9.5t24.5 -6t30.5 -4t32 -2t36 -1t36.5 -1 l-12 -45q-53 0 -160 4t-160 4q-51 0 -152.5 -4t-152.5 -4z" />
<glyph unicode="2" d="M168 -4v29l278 278l371 367q174 174 174 338q0 106 -67.5 170.5t-175.5 64.5q-106 0 -188.5 -68.5t-82.5 -173.5q0 -33 6 -66.5t12.5 -55t6.5 -25.5q0 -12 -13 -12q-27 0 -50 68.5t-23 127.5q0 152 106.5 242t259.5 90q168 0 275.5 -93t107.5 -257q0 -37 -6 -73 t-25.5 -72.5t-31.5 -62.5t-47 -62.5t-48.5 -53t-59.5 -55.5t-56 -47l-62 -49q-51 -41 -55 -43l-416 -352h363h55h49q12 0 40 1t37 4t29.5 9t30 15t24.5 21.5t26.5 30t25 41t27.5 52.5h43l-131 -328q-20 0 -60 4t-61 4q-115 0 -344 -4t-344 -4z" />
<glyph unicode="3" d="M111 -27l14 52q295 29 453 106q127 63 213 173t86 241q0 94 -58.5 140t-154.5 46q-51 0 -121 -12t-72 -12q-35 0 -35 24q0 12 7.5 20.5t21.5 12.5t24.5 6t29 4t20.5 2q76 8 149.5 26.5t154.5 52.5t131 93.5t50 134.5q0 70 -62.5 102t-140.5 32q-115 0 -293 -56l37 168 q117 41 236 41q66 0 125 -10t117.5 -35t93 -76t34.5 -121q0 -61 -26.5 -112t-82.5 -91t-96 -61.5t-112 -52.5v-4q96 -2 151.5 -71.5t55.5 -170.5q0 -150 -107.5 -274.5t-257.5 -194.5q-253 -123 -585 -123z" />
<glyph unicode="4" d="M197 487l18 66l899 846h33l-223 -830h39q111 0 155 25q4 2 9.5 -2t2.5 -8l-24 -97h-203l-125 -487h-166l131 487h-546zM315 569h451l152 559l-5 5z" />
<glyph unicode="5" d="M100 -27l13 52q322 37 514 168q111 76 186.5 188.5t75.5 234.5q0 244 -299 244q-27 0 -96.5 -6t-87.5 -8l163 571q195 -70 332 -69q43 0 86 6t73 14t53.5 17.5t37.5 15.5l14 6q6 0 6 -4q0 -23 -43 -74q-125 -139 -413 -135q-25 0 -158 10l-47 -184l121 6q178 0 294.5 -81 t116.5 -251q0 -166 -95 -309t-247 -242q-225 -145 -600 -170z" />
<glyph unicode="6" d="M244 395q0 178 97 358.5t245 315.5q281 260 659 315l10 -36q-207 -61 -342 -139.5t-245 -221.5q-113 -145 -186.5 -352t-73.5 -385q0 -96 46 -164t138 -68q104 0 187 94.5t122 212t39 218.5q0 82 -34 138t-113 56q-57 0 -104.5 -40t-76 -79.5t-41.5 -39.5q-20 0 -20 22 q0 29 43 84q106 135 254 135q131 0 203.5 -84t72.5 -217q0 -207 -153.5 -376t-356.5 -169q-170 0 -270 124t-100 298z" />
<glyph unicode="7" d="M371 -27l587 875q6 8 197 342h-412q-154 0 -186 -14q-8 -4 -16 -11q-33 -25 -97 -190h-43l129 477h41q0 -4 1 -18.5t2 -22.5t3.5 -19.5t8.5 -19.5t14 -14q25 -14 154 -15h522l-668 -1370h-237z" />
<glyph unicode="8" d="M225 289q0 154 109.5 253t283.5 173q-162 154 -161 307q0 162 121.5 262t287.5 100q133 0 231.5 -73.5t98.5 -200.5q0 -72 -29.5 -130t-85 -102t-105.5 -72t-122 -58q193 -193 193 -365q0 -184 -131.5 -297t-319.5 -113q-156 0 -263.5 83t-107.5 233zM358 291 q0 -125 63.5 -199t186.5 -74t199 87.5t76 211.5q0 74 -38 146t-79 115t-111 104q-133 -53 -215 -154.5t-82 -236.5zM610 1100q0 -55 30 -112.5t56.5 -86.5t83.5 -84l17 -16l20 -19q246 115 246 328q0 102 -58.5 165.5t-159 63.5t-168 -68.5t-67.5 -170.5z" />
<glyph unicode="9" d="M246 8q207 63 342 140t243 221q113 145 188 352t75 385q0 96 -46.5 163.5t-138.5 67.5q-104 0 -188 -94t-123 -212t-39 -218q0 -82 35 -138.5t113 -56.5q45 0 84.5 25t62.5 55.5t43.5 55t30.5 24.5q20 0 20 -22q0 -55 -90 -137t-207 -82q-131 0 -203.5 84t-72.5 217 q0 207 153.5 376.5t358.5 169.5q170 0 270 -123.5t100 -299.5q0 -178 -98 -358.5t-246 -315.5q-279 -260 -657 -314z" />
<glyph unicode=":" horiz-adv-x="573" d="M205 84q0 49 32.5 81t81.5 32q47 0 78 -34t31 -81q0 -43 -33 -76t-76 -33q-47 0 -80.5 32t-33.5 79zM379 770q0 47 32.5 80t82.5 33q47 0 77.5 -35t30.5 -80q0 -43 -32.5 -76t-75.5 -33q-47 0 -81 32t-34 79z" />
<glyph unicode=";" horiz-adv-x="573" d="M74 -293q143 72 200 143q57 70 58 140q-10 -4 -27 -13q-16 -4 -29 -4q-39 0 -68.5 30t-29.5 71q0 51 33 87t82 36q63 0 100 -53.5t37 -120.5q0 -121 -103.5 -216.5t-238.5 -144.5zM379 770q0 47 32.5 80t82.5 33q47 0 77.5 -35t30.5 -80q0 -43 -32.5 -76t-75.5 -33 q-47 0 -81 32t-34 79z" />
<glyph unicode="&#x37e;" horiz-adv-x="573" d="M74 -293q143 72 200 143q57 70 58 140q-10 -4 -27 -13q-16 -4 -29 -4q-39 0 -68.5 30t-29.5 71q0 51 33 87t82 36q63 0 100 -53.5t37 -120.5q0 -121 -103.5 -216.5t-238.5 -144.5zM379 770q0 47 32.5 80t82.5 33q47 0 77.5 -35t30.5 -80q0 -43 -32.5 -76t-75.5 -33 q-47 0 -81 32t-34 79z" />
<glyph unicode="&#x3c;" d="M291 406v100l737 342v-111l-612 -284l612 -277v-102z" />
<glyph unicode="=" d="M209 264v109h907v-109h-907zM209 532v109h907v-109h-907z" />
<glyph unicode="&#x3e;" d="M291 74v102l612 277l-612 284v111l737 -342v-100z" />
<glyph unicode="?" horiz-adv-x="901" d="M451 1137q0 106 77.5 169.5t188.5 63.5q137 0 230 -86t93 -221q0 -158 -200 -332l-68 -57q-6 -6 -31.5 -27.5t-45 -39t-42 -41t-35 -45t-12.5 -40.5q0 -27 18.5 -43t47.5 -16q61 0 129 59l33 -32q-82 -88 -183 -89q-70 0 -112.5 48.5t-42.5 115.5q0 100 127 219l114 105 q109 100 140 153t30 109q0 94 -53 146.5t-147 52.5q-78 0 -136.5 -45t-58.5 -121q0 -47 34 -87t81 -40q39 0 39 24q0 4 -19.5 28t-19.5 52.5t20.5 48t48.5 19.5q37 0 60.5 -25.5t23.5 -62.5q0 -59 -48 -97t-107 -38q-76 0 -125 49t-49 123zM453 84q0 49 33.5 81t84.5 32 q45 0 75 -34t30 -79t-33 -78t-78 -33q-47 0 -79.5 33t-32.5 78z" />
<glyph unicode="@" horiz-adv-x="1474" d="M287 606q0 305 218 534.5t515 229.5q240 0 408.5 -146.5t168.5 -385.5q0 -236 -159.5 -408t-333.5 -172q-53 0 -98 29.5t-48 79.5q-115 -109 -239 -109q-88 0 -139.5 68.5t-51.5 160.5q0 127 61.5 264.5t174.5 234.5t237 97q63 0 115.5 -28.5t61.5 -83.5h4l32 84h158 l-221 -516q-27 -61 -39 -96t-18.5 -66t3 -43t33.5 -12q127 0 254 151.5t127 355.5q0 199 -144 326t-341 127q-272 0 -451.5 -194.5t-179.5 -477.5q0 -240 143.5 -394.5t376.5 -154.5q162 0 311.5 82t235.5 224h80q-82 -176 -261 -285t-374 -109q-266 0 -443 181.5 t-177 451.5zM659 412q0 -41 28 -69t69 -28q139 0 245 244l113 270q33 66 15.5 133.5t-91.5 67.5q-88 0 -180 -122t-145.5 -266t-53.5 -230z" />
<glyph unicode="A" horiz-adv-x="1310" d="M18 -4l13 45q102 16 159 78q18 20 45 60t45.5 73t46 83t35.5 66l558 967h61l162 -1106q25 -156 41 -178q8 -10 20.5 -18.5t32.5 -12.5l31 -6q10 -2 37 -4l26 -2l-12 -45q-45 0 -136 4t-136 4q-43 0 -131.5 -4t-133.5 -4l11 45q8 0 33.5 2t36.5 3t31.5 5t30 10.5 t21.5 16.5t17.5 26.5t5.5 36.5q0 45 -13 123l-45 295h-397l-90 -170q-117 -233 -117 -285q0 -12 6 -22t20.5 -17.5t27 -11.5t32.5 -6l31 -3l31 -3h18l-12 -45q-39 0 -117 4t-117 4q-35 0 -104.5 -4t-104.5 -4zM549 621h352l-61 505h-4z" />
<glyph unicode="B" horiz-adv-x="1228" d="M66 -4l12 45q18 -1 34 -1q24 0 43 2q32 3 55 17.5t36.5 24.5t28 44t20.5 52.5t20 69.5l222 827q39 133 38 158q0 23 -12 38t-38.5 22.5t-43 9.5t-50.5 2h-36l13 45q47 0 137 -4.5t137 -4.5q176 4 213 9q82 -2 151.5 -16.5t136 -46.5t105.5 -93t39 -147q0 -270 -414 -326 v-4q162 -31 255.5 -104.5t93.5 -225.5q0 -106 -49.5 -186t-130.5 -124t-171 -65q-82 -19 -169 -18h-17q-61 0 -186 4t-187 4q-49 0 -143 -4t-143 -4zM492 147q0 -106 167 -106q182 0 290 110.5t108 299.5q0 78 -25.5 130t-75 76.5t-99.5 33.5t-124 11h-102l-103 -376 q-36 -156 -36 -179zM643 748h131q358 10 359 344q0 215 -254 215q-66 0 -86 -31q-12 -16 -39 -111z" />
<glyph unicode="C" horiz-adv-x="1269" d="M258 494q0 211 101.5 411.5t285.5 332.5t397 132q92 0 163 -24.5t163 -81.5l72 73h20l-78 -381h-41q-6 82 -18 141.5t-42 115t-86 84t-140 28.5q-137 0 -254 -97.5t-187.5 -241.5t-110.5 -295.5t-40 -276.5q0 -178 86 -287t260 -109q57 0 107.5 13.5t88 30t76.5 53.5 t61.5 62.5t56.5 78.5t48.5 81t48.5 91h43l-108 -432h-23l-24 106q-102 -72 -196.5 -100.5t-219.5 -28.5q-229 0 -369.5 146t-140.5 375z" />
<glyph unicode="D" horiz-adv-x="1351" d="M-8 -4l12 45q18 -1 34 -1q24 0 43 2q32 3 55.5 17.5t36.5 24.5t27.5 44t20.5 52.5t21 69.5l221 827q39 133 39 158q0 23 -12.5 38t-39 22.5t-43 9.5t-50.5 2h-35l12 45q45 0 136 -4.5t136 -4.5q33 0 100.5 4.5t102.5 4.5q20 1 39 1q235 0 405 -139q193 -160 193 -426 q0 -162 -65.5 -313t-182.5 -266q-125 -121 -266 -169q-130 -44 -295 -44h-29q-59 0 -179 4t-179 4q-43 0 -129 -4t-129 -4zM428 162q0 -41 17.5 -67.5t52 -37t62.5 -13.5t71 -3q166 0 277.5 74.5t195.5 228.5q137 258 137 547q0 205 -117 320q-99 98 -254 99q-27 0 -57 -3 q-74 -6 -86 -15q-8 -6 -31 -84l-223 -829q-45 -158 -45 -217z" />
<glyph unicode="E" horiz-adv-x="1146" d="M-8 -4l12 45h26q49 0 81 6q39 8 64.5 41t34.5 61.5t30 100.5l221 827q35 139 35 154q0 76 -154 76l12 45q43 0 128 -4.5t128 -4.5q115 0 342.5 4.5t341.5 4.5l29 -312h-39q-43 154 -110.5 210.5t-186.5 56.5h-272l-148 -557h158q92 0 142.5 43t107.5 174h37l-107 -523 h-41q0 10 3 59q2 36 3 59q0 8 -1 15q-1 26 -15 58.5t-43 48.5q-35 20 -111 21h-145l-117 -435q-20 -70 -20 -108q0 -29 11 -50.5t37 -35t45 -21.5t59 -11t56.5 -4t57.5 1h41q178 0 266 67.5t170 239.5h47l-94 -352q-139 0 -417.5 4t-417.5 4q-49 0 -143.5 -4t-143.5 -4z" />
<glyph unicode="F" horiz-adv-x="983" d="M-6 -4l12 45q18 -1 34 -1q24 0 43 2q32 3 55.5 17.5t36.5 24.5t27.5 44t20.5 52.5t21 69.5l233 827q39 133 39 158t-12 40t-38 21.5t-44.5 8.5t-49.5 2h-36l12 45q45 0 135 -4.5t135 -4.5q111 0 336.5 4.5t335.5 4.5l29 -328h-41q-37 170 -120 226.5t-263 56.5 q-27 -2 -80 -5.5t-80 -5.5l-153 -542h170q84 2 133 47t100 168h41l-104 -523h-41v42v43q0 11 -1 39t-6.5 39.5t-11.5 32t-18.5 28.5t-27.5 19t-36.5 15.5t-50.5 4.5h-162l-118 -443q-35 -139 -35 -153q0 -16 6 -29.5t17.5 -21t25.5 -12.5t30.5 -6t34 -2t34.5 -1h34l-12 -45 q-51 0 -152.5 4t-152.5 4q-47 0 -142.5 -4t-142.5 -4z" />
<glyph unicode="G" horiz-adv-x="1392" d="M258 483q0 209 98.5 413t280.5 339t397 135q109 0 185.5 -29.5t187.5 -101.5l59 82h23l-78 -379h-41q-2 180 -84 281.5t-211 101.5q-143 0 -265 -96t-194.5 -240.5t-112.5 -298t-40 -282.5q0 -174 89 -282t259 -108q176 0 277.5 101.5t101.5 277.5q0 31 -10.5 49.5 t-32 26.5t-37.5 11t-50 4t-46 4l10 45q45 0 135 -4.5t135 -4.5t136.5 4.5t136.5 4.5l-13 -45q-104 -6 -124 -25q-8 -8 -18.5 -34.5t-18 -51.5t-15.5 -57.5t-10 -38.5q-39 -147 -41 -207q-8 0 -28.5 2t-28.5 2q-72 0 -209 -54.5t-268 -54.5q-233 0 -384 139.5t-151 370.5z " />
<glyph unicode="H" horiz-adv-x="1597" d="M66 -4l12 45q18 -1 34 -1q24 0 43 2q32 3 55 17.5t36.5 24.5t28 44t20.5 52.5t20 69.5l236 827q39 133 39 158q0 23 -12.5 38t-39 22.5t-43 9.5t-50.5 2h-35l12 45q49 0 145.5 -4.5t143.5 -4.5t143 4.5t143 4.5l-12 -45q-141 -4 -174 -52q-27 -33 -86 -237l-82 -299h682 l96 358q35 139 35 154q0 16 -5 29.5t-18.5 21.5t-24.5 13t-32.5 7.5t-33 3.5t-35.5 1h-33l12 45q45 0 133 -4.5t131 -4.5q53 0 159 4.5t159 4.5l-13 -45q-141 -4 -174 -52q-27 -33 -86 -237l-200 -752q-2 -8 -13.5 -45t-18.5 -67.5t-7 -44.5q0 -16 5 -28.5t17.5 -19 t24.5 -11.5t31.5 -6t33 -2t34.5 -1h32l-14 -45q-49 0 -145.5 4t-143.5 4t-140.5 -4t-140.5 -4l13 45q18 -1 33 -1q24 0 43 2q32 3 55.5 17.5t37 24.5t28 44t20.5 52.5t20 69.5l109 407h-682l-119 -391q-2 -8 -13.5 -45t-18.5 -67.5t-7 -44.5q0 -16 5 -28.5t17.5 -19 t24.5 -11.5t31.5 -6t33 -2t34.5 -1h32l-14 -45q-51 0 -152.5 4t-152.5 4q-45 0 -131 -4t-131 -4z" />
<glyph unicode="I" horiz-adv-x="696" d="M53 -4l13 45q18 -1 33 -1q24 0 43 2q32 3 55.5 17.5t37 24.5t27.5 44t20.5 52.5t20.5 69.5l238 827q35 139 34 154q0 16 -5 29.5t-18 21.5t-24.5 13t-33 7.5t-32.5 3.5t-36 1h-33l13 45q45 0 133 -4.5t131 -4.5q53 0 158.5 4.5t158.5 4.5l-12 -45q-141 -4 -174 -52 q-27 -33 -86 -237l-217 -752q-2 -8 -13.5 -45t-18.5 -67.5t-7 -44.5q0 -16 5 -28.5t17.5 -19t24.5 -11.5t31.5 -6t33 -2t34.5 -1h32l-14 -45q-49 0 -145.5 4t-143.5 4t-140.5 -4t-140.5 -4z" />
<glyph unicode="J" horiz-adv-x="614" d="M-283 -412q0 35 21.5 58.5t58.5 23.5q39 0 60 -25q19 -23 18 -58q0 -54 10 -68q35 -27 74 -27q158 0 217 227l365 1358q35 139 34 154q0 16 -5 29.5t-18 21.5t-24.5 13t-33 7.5t-32.5 3.5t-36 1h-33l13 45q45 0 133 -4.5t131 -4.5q53 0 158.5 4.5t158.5 4.5l-12 -45 q-141 -4 -174 -52q-27 -33 -86 -237l-209 -821q-94 -354 -141 -461q-131 -289 -416 -289q-49 0 -98.5 11.5t-91.5 45t-42 84.5z" />
<glyph unicode="K" horiz-adv-x="1351" d="M66 -4l10 45h26q49 0 80 6q39 8 64.5 41t35 61.5t29.5 100.5l221 827q35 111 35 154q0 16 -5 29.5t-18.5 21.5t-24.5 13t-31.5 7.5t-32 3.5t-35.5 1h-33l12 45q47 0 137.5 -4.5t137.5 -4.5q51 0 154.5 4.5t154.5 4.5l-12 -45q-2 0 -18.5 -1t-21.5 -1t-20.5 -1t-22.5 -2.5 t-20.5 -4.5t-21.5 -6t-18.5 -8t-17.5 -12t-13 -16q-37 -51 -84 -237l-78 -289l412 266q2 2 42.5 34t67.5 53.5t62.5 55t55 61.5t19.5 48q0 59 -151 60l12 45q37 0 109.5 -4.5t109.5 -4.5q39 0 117 4.5t117 4.5l-13 -45q-53 -6 -98 -28t-70.5 -43.5t-74.5 -66.5l-527 -401 l279 -422q131 -199 178 -248q10 -10 20.5 -19t24.5 -14.5t20.5 -9.5t25 -6t22.5 -3t27.5 -3t27.5 -2l-12 -45q-49 0 -148.5 4t-148.5 4q-47 0 -140.5 -4t-140.5 -4l12 45q4 0 30 2t41 4t36.5 8t32 18.5t10.5 30.5q0 14 -13.5 43t-28.5 53.5t-34.5 54.5t-23.5 36l-252 385 l-56 -25l-104 -385q-33 -131 -33 -153q0 -18 6 -30.5t16.5 -20t25 -12.5t30.5 -6t33.5 -2t35.5 -1h33l-12 -45q-49 0 -147.5 4t-147.5 4q-47 0 -142 -4t-142 -4z" />
<glyph unicode="L" horiz-adv-x="1228" d="M66 -4l12 45q18 -1 34 -1q24 0 43 2q32 3 55 17.5t36.5 24.5t28 44t20.5 52.5t20 69.5l224 827q39 133 39 158q0 12 -4.5 23.5t-13.5 18.5t-18.5 13t-23.5 9.5t-25.5 5.5t-27.5 2h-25h-23h-20l13 45q45 0 134 -4.5t134 -4.5q51 0 155.5 4.5t155.5 4.5l-12 -45 q-135 0 -174 -54q-27 -33 -86 -237l-191 -707q-31 -113 -30 -162q0 -27 11 -47t31.5 -31.5t42 -18.5t53.5 -9t51.5 -2t50 1t38.5 1q209 0 309.5 56.5t176.5 242.5h45l-93 -344q-145 0 -437 4t-437 4q-45 0 -136 -4t-136 -4z" />
<glyph unicode="M" horiz-adv-x="1802" d="M72 -4l12 45q141 0 195 106q41 84 120 361l207 713q8 29 -8 48t-51 26.5t-59.5 9.5t-51.5 2l10 45q33 0 100.5 -4.5t102.5 -4.5q31 0 88.5 4.5t87.5 4.5l193 -1061l635 1061q55 -4 166 -9q35 0 103.5 4.5t102.5 4.5l-12 -45q-29 0 -52.5 -3.5t-40.5 -6.5t-32.5 -14 t-25 -16t-18.5 -23.5t-13 -26t-10 -34t-8.5 -34.5t-7.5 -42t-7 -44l-151 -891q-8 -20 -3 -35.5t4 -28t10 -22.5t16 -16.5t20.5 -11.5t22.5 -7t26 -4l27 -3q9 -1 28 -2t27 -1l-10 -45q-49 0 -145.5 4t-143.5 4t-140.5 -4t-140.5 -4l12 45q125 10 155 33.5t50 138.5l178 1004 l-4 4l-723 -1221h-32l-219 1231h-5l-194 -733q-76 -289 -76 -344q0 -72 37 -91.5t117 -21.5h20l-12 -45q-41 0 -127 4t-127 4q-37 0 -111.5 -4t-111.5 -4z" />
<glyph unicode="N" horiz-adv-x="1433" d="M72 -4l10 45q45 6 64.5 10t49 14.5t48 30t35.5 51.5q41 78 124 385l170 639q-51 96 -78.5 114t-138.5 22l13 45q29 0 88 -4.5t90 -4.5q27 0 76 4.5t75 4.5l545 -1100l180 670q49 186 50 266q0 51 -27 77.5t-49.5 30.5t-83.5 9q-10 2 -17 2l13 45q37 0 109.5 -4.5 t109.5 -4.5t114.5 4.5t114.5 4.5l-10 -45q-55 0 -93 -15.5t-61.5 -51.5t-37 -67.5t-29.5 -91.5l-297 -1118h-47l-568 1143l-159 -594q-74 -274 -74 -360q0 -47 27.5 -73t58.5 -31t80 -7h14l-12 -45q-41 0 -121 4t-121 4q-39 0 -117.5 -4t-117.5 -4z" />
<glyph unicode="O" horiz-adv-x="1433" d="M258 494q0 209 102.5 409.5t288 333.5t395.5 133q227 0 367.5 -149.5t140.5 -376.5q0 -207 -106.5 -407.5t-294.5 -332t-399 -131.5q-231 0 -362.5 144t-131.5 377zM463 377q0 -147 70.5 -253t211.5 -106q139 0 259 101.5t192 252t112 308.5t40 285q0 135 -74 247.5 t-203 112.5q-137 0 -257 -102.5t-193.5 -254t-115.5 -309t-42 -282.5z" />
<glyph unicode="P" horiz-adv-x="1146" d="M31 -4l12 45q18 -1 34 -1q24 0 43 2q32 3 55.5 17.5t36.5 24.5t27.5 44t20.5 52.5t21 69.5l221 827q39 133 39 158q0 23 -12.5 38t-39 22.5t-43 9.5t-50.5 2h-36l13 45q35 0 112.5 -3t120.5 -6q41 0 125 4.5t127 4.5q96 -2 173 -14.5t160 -43t130 -97.5t49 -165 q-2 -117 -59.5 -199.5t-150.5 -124.5t-190.5 -60.5t-205.5 -18.5q-31 2 -91.5 4t-90.5 4l-101 -371q-2 -8 -13 -45t-18.5 -67.5t-7.5 -44.5q0 -16 5.5 -28.5t17.5 -19t24.5 -11.5t32 -6t32.5 -2t35 -1h32l-15 -45q-41 0 -140 3t-153 5q-47 0 -140 -3t-142 -5zM594 688 q23 -2 68 -5t67 -5q190 0 313 102.5t123 290.5q0 119 -80.5 177.5t-201.5 58.5q-106 0 -129 -35q-6 -10 -23 -76z" />
<glyph unicode="Q" horiz-adv-x="1433" d="M258 496q0 211 100.5 410.5t282.5 331.5t397 132q236 0 371 -137t135 -371q0 -162 -67.5 -324.5t-180.5 -291.5q-217 -246 -553 -273l-186 -92v-4h78q111 0 229.5 -40t204.5 -88t198.5 -88t213.5 -40q63 0 109 25.5t65.5 50t21.5 24.5q6 0 6 -14q0 -78 -75.5 -169 t-212.5 -91q-115 0 -219.5 57.5t-282.5 206.5q-143 121 -305 121q-102 0 -215 -63q-43 -29 -60 -29q-43 0 -43 47q0 33 64 49q92 23 166 64l143 77q-193 43 -289 179.5t-96 339.5zM463 395q0 -152 70.5 -264.5t214.5 -112.5q137 0 254.5 104.5t188.5 258.5t109.5 311.5 t38.5 282.5q0 145 -71.5 247.5t-212.5 102.5q-133 0 -251 -100.5t-188.5 -249t-111.5 -303t-41 -277.5z" />
<glyph unicode="R" horiz-adv-x="1310" d="M66 -4l10 45h26q49 0 80 6q39 8 64.5 41t35 61.5t29.5 100.5l221 827q39 133 39 158q0 23 -12 38t-38.5 22.5t-43 9.5t-50.5 2h-36l12 45q41 0 129.5 -3t133.5 -6q43 0 124.5 4.5t124.5 4.5q23 1 46 0q45 0 88 -2q63 -4 135.5 -22.5t125 -49.5t87.5 -89.5t35 -135.5 q0 -92 -50.5 -163t-133.5 -112t-166 -63.5t-169 -30.5v-4q162 -45 216.5 -128t58.5 -257q2 -47 4 -76t13.5 -73t37 -67.5t66.5 -23.5q27 0 52 14.5t38.5 28t38.5 39.5l37 -22q-39 -61 -115 -101.5t-152 -40.5q-115 0 -169 79q-50 73 -50 178v16l8 192q0 139 -56 182.5 t-200 43.5q-20 0 -62 -2.5t-63 -2.5l-106 -393q-2 -8 -13.5 -45t-18.5 -67.5t-7 -44.5q0 -16 5 -28.5t17.5 -19t24.5 -11.5t31.5 -6t33 -2t34.5 -1h32l-14 -45q-39 0 -135.5 3t-149.5 5q-47 0 -142 -4t-142 -4zM629 707q268 8 375 45q102 35 162.5 115.5t60.5 189.5 q0 131 -80 190.5t-213 59.5q-106 0 -137 -33q-20 -23 -41 -100z" />
<glyph unicode="S" horiz-adv-x="983" d="M135 41l68 381h41q14 -184 89 -294t247 -110q109 0 179 75t70 183q0 86 -48 164t-117.5 140.5t-138 127t-117 150.5t-48.5 182q0 152 107.5 241t261.5 89q174 0 322 -119l61 74h27l-74 -348h-35q-4 160 -71.5 254t-204.5 94q-92 0 -155.5 -58.5t-63.5 -148.5 q0 -76 49 -148.5t119.5 -135t141 -128t120 -156.5t49.5 -196q0 -170 -118 -275.5t-290 -105.5q-102 0 -205.5 41t-173.5 111l-65 -84h-27z" />
<glyph unicode="T" horiz-adv-x="1310" d="M285 1006l90 346q104 0 309 -4.5t309 -4.5q94 0 283.5 4.5t284.5 4.5v-346h-41q-33 199 -111 250t-315 51l-277 -1041q-2 -8 -13 -45t-18.5 -67.5t-7.5 -44.5q0 -16 5 -28.5t17.5 -19t25 -11.5t32 -6t32.5 -2t35 -1h31l-14 -45q-41 0 -141.5 3t-155.5 5q-47 0 -141 -4 t-142 -4l13 45q18 -1 34 -1q24 0 43 2q32 3 55 17.5t36.5 24.5t28 44t20.5 52.5t20 69.5l281 1057q-88 0 -134 -2t-112.5 -10.5t-105.5 -27t-83 -51t-76 -85t-58 -125.5h-39z" />
<glyph unicode="U" horiz-adv-x="1392" d="M309 328q0 31 7.5 71.5t15.5 70.5t21.5 77t19.5 67l125 463q39 133 39 158q0 23 -12.5 38t-39 22.5t-43 9.5t-50.5 2h-36l13 45q45 0 135 -4.5t135 -4.5q51 0 153.5 4.5t153.5 4.5l-12 -45q-139 -4 -174 -54q-27 -33 -86 -237l-125 -469q-4 -18 -14.5 -56t-15.5 -60.5 t-10 -55.5t-5 -62q0 -131 89 -204.5t222 -73.5q84 0 152.5 26.5t113.5 66.5t83 107.5t59.5 125t48.5 143.5q43 137 103.5 373.5t60.5 312.5q0 39 -13.5 63.5t-42 34.5t-50 13.5t-62.5 5.5l12 45q76 -4 219 -9q76 0 232 9l-13 -45q-59 0 -99 -16.5t-64.5 -56.5t-36 -72 t-27.5 -97l-107 -381q-84 -295 -131 -393q-123 -264 -360 -307q-53 -10 -115 -11q-119 0 -220 33t-175 116t-74 206z" />
<glyph unicode="V" horiz-adv-x="1187" d="M274 1307l13 45q45 0 133 -4.5t131 -4.5q47 0 141 4.5t142 4.5l-13 -45h-20q-20 -2 -25.5 -3t-25 -3.5t-27.5 -5.5t-23.5 -7t-22.5 -11t-16.5 -15.5t-12.5 -19.5t-3 -25q0 -45 17 -189l98 -813h4q528 911 528 1014q0 27 -13 43t-35.5 22t-44 9.5t-46.5 3.5h-10l10 45 q35 0 103.5 -4.5t103.5 -4.5q37 0 111.5 4.5t111.5 4.5l-12 -45q-115 -14 -185 -111q-33 -43 -67.5 -104.5t-78.5 -142.5t-60 -111q-301 -535 -314 -553l-194 -322h-58l-161 1198q-12 96 -42.5 117t-136.5 29z" />
<glyph unicode="W" horiz-adv-x="1720" d="M264 1307l12 45q43 0 129.5 -4.5t129.5 -4.5q47 0 139 4.5t137 4.5l-12 -45q-12 -2 -44 -3t-48.5 -4.5t-38 -11.5t-31.5 -26.5t-10 -49.5v-47q0 -31 2 -45l84 -860h4l358 764q4 10 21.5 46t30 61.5t23.5 56.5t11 49q0 20 -11 33.5t-35.5 19.5t-39 9.5t-46.5 5.5t-34 2 l11 45q41 0 123.5 -4.5t123.5 -4.5q43 0 128 4.5t128 4.5l-10 -45q-8 -2 -28.5 -4.5t-27.5 -3.5t-23.5 -4t-21.5 -6t-16.5 -8t-15.5 -11t-11 -15.5t-9.5 -20.5t-4.5 -26.5t-2 -33.5l13 -193l75 -735h5l266 559q166 340 166 418q0 16 -5.5 29.5t-15.5 21.5t-19 14t-27.5 9 t-28 4.5t-30 3.5t-26.5 2l12 45q33 0 97.5 -4.5t97.5 -4.5q35 0 102.5 4.5t100.5 4.5l-8 -45q-31 -6 -56.5 -17.5t-48 -34t-38 -39t-35 -50t-27.5 -50t-26.5 -56.5t-22.5 -50l-506 -1047h-66l-129 1098h-4l-520 -1098h-68l-123 1120q-2 12 -5 51.5t-5 47.5t-7 35.5t-12 33.5 t-20.5 22.5t-31 19.5t-42 8.5t-57.5 5.5z" />
<glyph unicode="X" horiz-adv-x="1310" d="M111 -4l12 45q86 10 135 44t119 114l401 463l-205 450q-49 117 -75 143q-43 45 -156 52l12 45q43 0 131 -4.5t131 -4.5q47 0 142.5 4.5t142.5 4.5l-12 -45q-8 -2 -31.5 -3t-40 -3.5t-36 -8.5t-30 -19t-10.5 -34q0 -53 78 -223l99 -219l151 170q193 209 193 284 q0 16 -10.5 28.5t-30 16.5t-36 6.5t-40 3.5t-29.5 1l14 45q37 0 110 -4.5t110 -4.5q39 0 117.5 4.5t117.5 4.5l-12 -45q-80 -10 -133 -45q-53 -31 -189 -185l-307 -338l207 -448q84 -178 121 -213q35 -33 137 -37l-10 -45q-47 0 -140.5 4t-140.5 4q-45 0 -133 -4t-131 -4 l10 45h21q16 0 22 1t21.5 2t21.5 3t18.5 5t17.5 8l11 12q6 6 9.5 15t3.5 19q0 29 -60 170l-30 70l-113 250l-148 -162q-227 -244 -227 -323q0 -20 11.5 -34t35 -20t37.5 -9t45 -5l33 -2l-10 -45q-43 0 -125 4t-125 4q-37 0 -111.5 -4t-111.5 -4z" />
<glyph unicode="Y" horiz-adv-x="1187" d="M301 -4l10 45h26q49 0 81 6q39 8 64.5 41t34.5 61.5t30 100.5l96 362l-149 506q-29 111 -52 142q-31 43 -135 47l12 45q41 0 123 -4.5t123 -4.5q43 0 129 4.5t129 4.5l-12 -45q-2 0 -23.5 -1t-28.5 -1t-26.5 -3.5t-28 -7.5t-19.5 -11t-16 -19.5t-5 -26.5q0 -27 8 -57 l149 -518q4 4 135 153.5t214 261t83 156.5q0 12 -3 22.5t-10 17.5t-14 12t-19.5 9t-19.5 6.5t-22.5 3.5t-22.5 2t-23 1h-17l12 45q33 0 97.5 -4.5t97.5 -4.5q35 0 103.5 4.5t103.5 4.5l-13 -45q-20 2 -41.5 -5.5t-35 -14.5t-34 -28.5t-27.5 -28.5t-28.5 -36t-23.5 -31 l-479 -581l-99 -369q-20 -74 -20 -100q0 -16 6 -29.5t17.5 -21t25.5 -12.5t30.5 -6t34 -2t33.5 -1h33l-10 -45q-53 0 -157.5 4t-156.5 4q-45 0 -135 -4t-135 -4z" />
<glyph unicode="Z" horiz-adv-x="1146" d="M158 -4l948 1311h-178q-193 0 -295.5 -52.5t-212.5 -216.5h-41l125 314q123 0 366.5 -4.5t366.5 -4.5q25 0 74 4.5t73 4.5l-956 -1311h240q94 0 153.5 5t123 21.5t108.5 49.5t91 87t89 136h41q-20 -57 -65.5 -172t-65.5 -172q-141 0 -424 4t-424 4q-23 0 -68.5 -4 t-68.5 -4z" />
<glyph unicode="[" horiz-adv-x="778" d="M221 -276l387 1640h369l-19 -61h-225l-360 -1518h229l-18 -61h-363z" />
<glyph unicode="\" horiz-adv-x="573" d="M227 1419h115l461 -1695h-115z" />
<glyph unicode="]" horiz-adv-x="778" d="M78 -276l18 61h226l360 1518h-229l18 61h363l-388 -1640h-368z" />
<glyph unicode="^" d="M324 584l327 759h101l333 -759h-112l-275 630l-262 -630h-112z" />
<glyph unicode="_" horiz-adv-x="1024" d="M0 -154h1024v-102h-1024v102z" />
<glyph unicode="`" horiz-adv-x="696" d="M510 1303q0 27 19.5 49t45.5 22q14 0 31 -8t33 -23.5t27.5 -26.5t28 -31.5t20.5 -24.5l164 -189h-58l-235 148q-2 2 -11.5 7t-13.5 8t-12 8t-12.5 9t-10.5 11.5t-9 12.5t-5 12.5t-2 15.5z" />
<glyph unicode="a" horiz-adv-x="1024" d="M186 215q0 98 47.5 216t122 217.5t179 167t206.5 67.5q113 0 156 -111l31 84h145l-90 -244q-41 -111 -88 -279.5t-47 -248.5q0 -49 26 -49q14 0 31 11t34 33.5t32.5 44t33 55.5t26.5 51.5t25.5 49t16.5 33.5l43 -18q-8 -16 -36.5 -76.5t-46 -90.5t-49.5 -73t-69.5 -62.5 t-83.5 -19.5q-55 0 -88.5 31t-33.5 86q0 6 18 117l-4 4q-133 -238 -305 -238q-100 0 -166 70t-66 172zM334 158q0 -53 25.5 -96.5t74.5 -43.5q154 0 301 312q119 258 119 399q0 43 -26.5 76t-69.5 33q-94 0 -197.5 -136.5t-165 -296t-61.5 -247.5z" />
<glyph unicode="b" horiz-adv-x="860" d="M170 186q0 82 72 303l200 646q25 98 25 104q0 23 -12.5 36t-39 17t-36.5 5t-39 1l12 45l320 21l-127 -375l-94 -301l4 -4q121 199 270 199q100 0 158.5 -75t58.5 -179q0 -135 -75.5 -288t-207 -260.5t-270.5 -107.5q-98 0 -158.5 57.5t-60.5 155.5zM303 131 q0 -47 25.5 -80t72.5 -33q100 0 195.5 135.5t147 292t51.5 254.5q0 49 -26 93.5t-71 44.5q-94 0 -190 -143.5t-150.5 -307.5t-54.5 -256z" />
<glyph unicode="c" horiz-adv-x="737" d="M186 246q0 129 70 276.5t192.5 254t253.5 106.5q59 0 107.5 -31t48.5 -86q0 -33 -22.5 -59.5t-55.5 -26.5q-29 0 -49 21.5t-20 50.5q0 18 11 37.5t11 23.5q0 25 -45 25q-94 0 -180 -141.5t-130 -296t-44 -236.5q0 -59 29.5 -102.5t85.5 -43.5q160 0 290 263l41 -25 q-143 -283 -358 -283q-113 0 -174.5 78t-61.5 195z" />
<glyph unicode="d" horiz-adv-x="1024" d="M186 236q0 127 72 277.5t199 260t260 109.5q86 0 133 -86l96 336q27 98 27 114.5t-11.5 26.5t-31 15t-36.5 6t-40 2t-31 1l15 45l321 21l-98 -352l-86 -320q-4 -16 -26.5 -101t-36 -135t-31 -126t-25.5 -135.5t-8 -100.5q0 -59 33 -59q43 0 103 100.5t93 181.5l45 -16 q-47 -121 -120.5 -224.5t-165.5 -103.5q-57 0 -89 39t-32 99q0 39 18 131l-4 4q-135 -272 -305 -273q-111 0 -174.5 76t-63.5 187zM334 156q0 -55 27.5 -96.5t80.5 -41.5q96 0 188.5 142.5t139.5 301.5t47 247q0 49 -23.5 89t-70.5 40q-92 0 -187.5 -137.5t-148.5 -296 t-53 -248.5z" />
<glyph unicode="e" horiz-adv-x="696" d="M158 207q0 131 71.5 287.5t198.5 272.5t262 116q63 0 105.5 -39t42.5 -103q0 -51 -20.5 -98t-65.5 -88t-83 -69.5t-104.5 -61.5t-98.5 -46t-93 -40l-33 -14q-35 -113 -35 -189q0 -51 25.5 -84t75.5 -33q23 0 44 4.5t42.5 16.5t37 20.5t38 31t32.5 30.5t33.5 36.5t28 35 t28.5 38.5l25 33l37 -26q-178 -264 -365 -265q-106 0 -167.5 64t-61.5 170zM356 379q139 61 254 164.5t115 226.5q0 68 -63 68q-53 0 -105.5 -52.5t-92.5 -132.5t-67 -149.5t-41 -124.5z" />
<glyph unicode="f" horiz-adv-x="573" d="M-215 -434q0 25 15.5 41t39.5 16q31 0 46.5 -20.5t18.5 -45t20.5 -45t50 -20.5t60 20.5t52.5 64.5t33 64.5t26 65.5l283 1102h-168l14 45h166q20 70 28.5 94.5t33 93t43 100.5t52.5 83t67.5 75.5t82 44t101.5 19.5q61 0 117.5 -33t56.5 -90q0 -25 -14.5 -42t-36.5 -17 q-51 0 -72 73q-4 20 -10 32.5t-18.5 22t-32.5 9.5q-45 0 -82 -35t-63.5 -100.5t-43 -116.5t-34 -126t-21.5 -87h178l-14 -45h-174l-164 -668q-70 -276 -113 -383q-129 -311 -350 -311q-63 0 -118.5 30t-55.5 89z" />
<glyph unicode="g" horiz-adv-x="901" d="M45 -291q0 63 44 107.5t108 44.5q37 0 82 -25q-100 -37 -101 -141q0 -111 86 -157t209 -46q117 0 209 44t92 147q0 23 -4 42t-17.5 33.5t-21.5 24.5t-30.5 19.5t-33 14.5t-40 10t-35.5 7t-40 6t-36 4q-188 29 -254 62q-104 51 -104 143q0 150 223 195q-137 84 -137 219 q0 158 120.5 289t278.5 131q127 0 205 -97q82 86 160 86q49 0 89 -31.5t40 -78.5q0 -33 -23.5 -57.5t-56.5 -24.5q-27 0 -45.5 17.5t-22.5 43.5q0 4 -1 14.5t-2 14.5t-4 10t-9 8.5t-15 2.5q-29 0 -86 -52q23 -55 23 -108q0 -170 -112.5 -298t-280.5 -130q-221 0 -221 -86 q0 -49 62.5 -71.5t151.5 -33t178 -29t151.5 -80t62.5 -167.5q0 -80 -40 -139.5t-105.5 -90t-136 -45t-148.5 -14.5q-96 0 -183.5 21.5t-158 83t-70.5 157.5zM391 397q0 -61 34 -105t93 -44q57 0 104.5 50t73 124t39 144.5t13.5 123.5q0 59 -31 103.5t-86 44.5 q-72 0 -130.5 -86t-84 -184.5t-25.5 -170.5z" />
<glyph unicode="h" horiz-adv-x="1024" d="M168 0l326 1116q25 98 24 117q0 31 -22.5 46t-38 16t-54.5 3h-30l12 45l332 21l-223 -758l4 -4q37 53 52 74.5t56 69t71 69t75 40.5t90 19q150 0 145 -176q0 -113 -65 -290l-91 -242l-4 -12q-6 -12 -8 -21.5t-6 -25t-4 -26.5t1 -22.5t8 -17.5t20 -6q53 0 114.5 87 t104.5 173l45 -19q-131 -303 -297 -303q-119 0 -119 136q2 102 70 284l41 109q68 197 67 248q0 29 -17.5 46t-43.5 17q-78 0 -157 -83t-142.5 -218t-98 -223t-65.5 -183l-35 -106h-137z" />
<glyph unicode="i" horiz-adv-x="573" d="M184 621q2 4 17.5 30.5t21.5 35.5t21.5 33.5t25 36t25.5 32t27.5 30.5t30 24.5t33.5 21.5t34.5 12.5t38.5 5.5q55 0 91 -42t36 -98q0 -29 -6.5 -59.5t-18.5 -68t-21.5 -61.5t-26.5 -67t-24 -57l-65 -166q-61 -174 -62 -194q0 -12 9.5 -23.5t21.5 -11.5q51 0 118 86 t101 160l41 -21q-137 -287 -291 -287q-61 0 -97 43t-36 105q0 31 10.5 71.5t20.5 66.5t32.5 76t26.5 62l58 138q76 203 76 245q0 41 -35 41q-41 0 -99.5 -76.5t-93.5 -146.5zM489 1247q0 41 27 68.5t66 27.5q41 0 67.5 -27.5t26.5 -68.5q0 -37 -27.5 -63.5t-66.5 -26.5 q-37 0 -65 26.5t-28 63.5z" />
<glyph unicode="j" horiz-adv-x="532" d="M-199 -444q0 23 15.5 39t38.5 16q29 0 44 -18.5t19 -41t21.5 -41t48.5 -18.5q68 0 116 78t72 166l125 440q139 565 139 594q0 31 -22 31q-37 0 -108.5 -92.5t-106.5 -155.5l-39 25q55 111 143 208t180 97q43 0 68 -31t25 -74q0 -66 -31 -208t-60 -234l-184 -610 q-37 -117 -126 -198t-208 -81q-63 0 -116.5 27t-53.5 82zM500 1247q0 41 27.5 68.5t66.5 27.5t65.5 -27.5t26.5 -68.5q0 -37 -27.5 -63.5t-64.5 -26.5q-39 0 -66.5 25.5t-27.5 64.5z" />
<glyph unicode="k" horiz-adv-x="901" d="M131 0l311 1180q14 53 15 75q0 14 -10.5 23.5t-24.5 13.5t-34.5 6t-35 2t-32 -1t-19.5 -1l14 45l334 21q-10 -41 -34.5 -125t-34.5 -127l-111 -438l4 -4q150 213 318 213q57 0 105 -36t48 -89q0 -45 -22.5 -85t-64.5 -72t-80 -54.5t-92 -51t-79 -42.5q104 -29 135 -89 q26 -50 26 -139q0 -18 -1 -37l-2 -59q-5 -26 -5 -45q0 -49 32 -49q31 0 59.5 38t61 107.5t34.5 73.5l39 -16q-2 -6 -17.5 -42t-21.5 -47.5t-21.5 -42t-26.5 -43t-29.5 -34t-36 -30.5t-42 -17.5t-51.5 -8.5q-59 0 -95 41t-36 101q0 35 5 104.5t5 104.5q0 47 -13 69.5 t-56 32.5l-162 -74l-102 -352h-154zM401 410q395 160 396 348q0 29 -18.5 46t-49.5 17q-74 0 -146.5 -78.5t-114.5 -165.5t-67 -167z" />
<glyph unicode="l" horiz-adv-x="532" d="M207 135q0 82 78 328l209 686q20 68 20 84q0 20 -10 34.5t-29.5 19.5t-35 7t-41 3t-31.5 1l12 45l342 21l-244 -776q-123 -406 -123 -494q0 -59 39 -59q45 0 111.5 94t97.5 164l47 -23q-88 -166 -143 -223q-74 -74 -156 -74q-70 0 -106.5 45t-36.5 117z" />
<glyph unicode="m" horiz-adv-x="1474" d="M184 569q111 313 283 314q55 0 85 -43t30 -101q0 -27 -4.5 -58.5t-9.5 -67t-7 -56.5l4 -4q41 74 62.5 109.5t69.5 98t100.5 92.5t111.5 30q57 0 92 -40t35 -98q0 -59 -28 -149l4 -4q39 63 60.5 96t67.5 87t94 81t99 27q61 0 96 -47.5t35 -110.5q0 -94 -71 -299l-78 -219 q-35 -98 -35 -125q0 -47 33 -47q49 0 111.5 88t105.5 176l39 -23q-41 -104 -120 -203.5t-165 -99.5q-57 0 -92 40t-35 100q0 96 82 317l41 113q61 156 61 219q0 23 -12 40t-33 17q-41 0 -96 -53t-90 -102.5t-61 -96.5q-29 -51 -54.5 -104t-51 -120t-40 -106.5t-42 -124.5 t-38.5 -112h-145l106 326q119 356 119 444q0 18 -10 34.5t-27 16.5q-86 0 -185 -160.5t-146 -291.5l-138 -369h-137l111 371q78 299 78 383q0 68 -31 67q-47 0 -106.5 -96t-86.5 -172z" />
<glyph unicode="n" horiz-adv-x="1146" d="M176 563q2 4 16.5 37t19.5 43t19.5 41t23.5 44t25.5 39t30 38t31.5 30.5t36.5 26.5t41 14.5t45.5 6.5q59 0 92 -40t33 -102q0 -31 -17 -151l-6 -37l4 -4q172 334 365 334q68 0 114 -49.5t46 -116.5q0 -119 -70 -301l-37 -99q-70 -199 -69 -221q0 -20 11 -40.5t32 -20.5 q53 0 112.5 88t95.5 170l43 -21q-141 -299 -292 -299q-63 0 -99.5 41t-36.5 105q0 25 5.5 53.5t14.5 63t17 58t21.5 62.5t17.5 52l37 100q74 190 74 244q0 29 -19.5 49t-50.5 20q-72 0 -147.5 -85t-128.5 -179q-100 -176 -197 -494l-18 -63h-154l45 129q156 473 156 627 q0 66 -39 65q-23 0 -48.5 -20.5t-50 -58t-42 -68.5t-38 -74t-24.5 -51z" />
<glyph unicode="o" horiz-adv-x="860" d="M186 272q0 123 58.5 262.5t171 244t243.5 104.5q135 0 209 -96.5t74 -235.5q0 -123 -60.5 -255t-172 -227.5t-238.5 -95.5q-131 0 -208 83t-77 216zM334 172q0 -154 139 -154q80 0 144.5 79t101.5 191.5t56.5 219t19.5 178.5q0 61 -33 106.5t-92 45.5q-76 0 -142.5 -80 t-106.5 -191.5t-63.5 -219t-23.5 -175.5z" />
<glyph unicode="p" horiz-adv-x="983" d="M-41 -561l12 45q80 4 107 31q23 27 67 186l285 1040q-135 -92 -174 -137q-47 -53 -78 -135l-41 16q25 86 71 140.5t136 122.5q76 55 102.5 93t49.5 126l57 225l141 -21l-137 -487l4 -4q43 66 72 101.5t84 68.5t121 33q106 0 166.5 -76t60.5 -184q0 -131 -65.5 -280.5 t-188.5 -259.5t-260 -110q-49 0 -95 31t-61 78h-4l-76 -277q-61 -225 -61 -254q0 -14 5 -25t16.5 -18.5t20.5 -11.5t26.5 -6t25.5 -3t27 -3h18l-14 -45q-37 0 -109.5 4t-109.5 4q-33 0 -100.5 -4t-100.5 -4zM436 158q0 -51 28 -95.5t75 -44.5q94 0 187 137.5t142.5 295 t49.5 249.5q0 51 -29 94.5t-78 43.5q-72 0 -144.5 -82t-120.5 -194.5t-79 -224t-31 -179.5z" />
<glyph unicode="q" horiz-adv-x="901" d="M186 229q0 129 70 281t193.5 262.5t257.5 110.5q121 0 153 -125h4l31 125h133l-301 -1078q-68 -236 -68 -266q0 -18 11.5 -30.5t29 -17.5t39 -7t41 0t33.5 0l-12 -45q-39 0 -115 4t-115 4q-37 0 -111.5 -4t-111.5 -4l14 45q102 8 117 20q20 16 58 129l159 562l-4 4 q-121 -225 -284 -226q-113 0 -167.5 70.5t-54.5 185.5zM334 168q0 -59 21.5 -104.5t72.5 -45.5q98 0 192.5 140.5t144.5 300t50 254.5q0 49 -24.5 87t-71.5 38q-92 0 -186.5 -137.5t-146.5 -293t-52 -239.5z" />
<glyph unicode="r" horiz-adv-x="696" d="M137 582q39 96 115 198.5t147 102.5q70 0 104 -59q32 -55 32 -123q0 -17 -9 -79q-6 -46 -8 -65l4 -4q123 330 287 330q45 0 80 -26t35 -69q0 -31 -23.5 -53t-56.5 -22q-31 0 -49.5 17.5t-18.5 47.5q0 43 -14 43q-29 0 -69 -52t-60 -91q-74 -143 -187 -483l-65 -195h-152 l105 338q59 242 59 371q0 113 -32.5 112.5t-95 -100.5t-85.5 -156z" />
<glyph unicode="s" horiz-adv-x="696" d="M129 139q0 76 53 76q25 0 43.5 -17.5t18.5 -43.5q0 -10 -3 -29t-3 -27q0 -41 39.5 -60.5t87.5 -19.5q76 0 127 40t51 114q0 59 -59.5 140t-119 168t-59.5 161q0 113 83 177.5t200 64.5q72 0 135 -32t63 -97q0 -23 -14 -38.5t-37 -15.5q-35 0 -47 21.5t-10 47.5 t-18.5 47.5t-69.5 21.5q-55 0 -96 -35t-41 -90q0 -47 36.5 -105.5t80.5 -107.5t81 -120q39 -75 39 -144q0 -123 -89 -192q-91 -71 -224 -71q-92 0 -170 41t-78 125z" />
<glyph unicode="t" horiz-adv-x="573" d="M211 111q0 74 65 297l117 403h-162l17 45h162l96 285h141l-88 -285h160l-14 -45h-160l-17 -53q-39 -125 -104.5 -373t-65.5 -295q0 -55 35 -55q20 0 43 16.5t40.5 38t40 56t34.5 57t29.5 58.5t21.5 42l41 -22l-26 -52q-24 -47 -31.5 -62t-31.5 -55t-42 -56.5t-45 -40 t-56.5 -33t-62.5 -9.5q-59 0 -98 39.5t-39 98.5z" />
<glyph unicode="u" horiz-adv-x="1146" d="M180 567q152 315 312 316q57 0 90.5 -46t33.5 -106q0 -82 -49 -237l-86 -271q-29 -86 -28 -121q0 -31 20.5 -49t52.5 -18q61 0 130 67.5t110 137t72 139.5l166 493h151l-78 -258q-6 -20 -27.5 -94t-31.5 -113.5t-25.5 -102t-22.5 -114t-7 -96.5q0 -59 34 -59 q45 0 105.5 96t79.5 162l45 -17q-111 -303 -266 -303q-70 0 -107 44q-32 38 -32 93q0 9 1 19q2 20 5 62t6 63l-5 4q-37 -61 -63.5 -98t-70.5 -87t-95 -75t-108 -25q-74 0 -123.5 48.5t-49.5 121.5q0 66 39 191l37 121q4 16 26.5 83.5t33 110.5t14.5 84q2 19 2 33 q0 55 -25 55q-49 0 -114.5 -94t-108.5 -180z" />
<glyph unicode="v" horiz-adv-x="983" d="M172 684q0 57 35 96t92 39q49 0 96 -41q35 -35 58 -35q31 0 65.5 17.5t40.5 42.5q0 2 5 19.5t8 22.5t10.5 17t15.5 16.5t20 4.5q33 0 33 -37q0 -12 -9 -31.5t-26 -48.5l-16 -27q-141 -242 -141 -506q0 -199 121 -198q119 0 239 198q100 170 101 400l-5 92q-2 12 -2 34.5 t-2 33.5q0 90 72 90q82 0 82 -119q0 -109 -40 -243t-108.5 -257t-177 -207t-229.5 -84q-100 0 -164.5 61.5t-64.5 160.5q0 45 14 97t43 110.5t51.5 98.5t62.5 104.5t52 84.5l-4 4q-76 -33 -113 -32q-31 0 -73 18t-54 18q-43 0 -43 -57v-14q0 -18 -12 -19q-33 0 -33 76z" />
<glyph unicode="w" horiz-adv-x="1310" d="M176 696q0 57 33 96t88 39q45 0 88 -39.5t61 -39.5q49 0 75 20.5t30 45t14 45t35 20.5q14 0 24.5 -9.5t10.5 -23.5t-10.5 -34.5t-26.5 -48.5t-18 -30q-59 -98 -113.5 -254.5t-54.5 -257.5q0 -190 108 -190q162 0 273 450l24 93q49 174 55 184q20 37 60 37q29 0 49 -19.5 t20 -50.5t-65.5 -251t-65.5 -302q0 -53 24 -97t71 -44q86 0 158.5 104.5t105.5 222t33 197.5q0 68 -17 156q-10 55 -10 69q0 98 78 99q88 0 88 -156q0 -98 -35 -224t-95.5 -246t-155.5 -202t-202 -82q-82 0 -127 52.5t-47 134.5h-4q-53 -82 -130 -134.5t-165 -52.5 t-147.5 52.5t-59.5 138.5q0 49 17.5 106.5t54.5 126t62.5 109.5t78 116.5t62.5 92.5l-4 4q-6 -4 -19.5 -12.5t-19.5 -11.5l-19 -9q-12 -6 -21 -9t-21.5 -5t-24.5 -2q-55 12 -70 20q-39 14 -51 15q-37 0 -37 -56v-18q0 -14 -10 -15q-35 0 -35 80z" />
<glyph unicode="x" horiz-adv-x="942" d="M152 66q0 84 102 210l45 -28q-66 -100 -66 -135q0 -47 35 -47q10 0 21.5 5t23 16t17.5 19.5t17 22.5t13 18l181 263l-107 299q-12 51 -47 51q-55 0 -88 -174l-45 14q10 98 60.5 190.5t131.5 92.5q59 0 101 -68q29 -45 80 -205l20 -61l37 51q4 4 26.5 37t36 51.5t40 53 t47 55t45 43t47 34t43.5 11.5q35 0 61.5 -27t26.5 -59q0 -90 -119 -213l-35 26q4 6 19.5 31t24.5 39t18.5 35.5t9.5 38.5q0 37 -37 37q-47 0 -184 -191l-84 -113l108 -296q2 -4 8.5 -19.5t12.5 -26t14 -23.5t16.5 -20.5t18.5 -7.5q16 0 30.5 12.5t25.5 36t19.5 42t17.5 45 t11 32.5l49 -16q-25 -92 -84 -183.5t-133 -91.5q-39 0 -70.5 34t-45 64.5t-31.5 82.5q-2 8 -4 12l-68 182l-180 -266q-76 -109 -147 -109q-37 0 -61.5 28t-24.5 65z" />
<glyph unicode="y" horiz-adv-x="778" d="M-25 -496q0 76 108 76h11q18 -1 35 -1q58 0 93 11q46 14 104 64q139 145 139 330q0 100 -20.5 250.5t-49.5 248.5q-16 68 -58 172.5t-75 104.5q-31 0 -45 -65.5t-14 -112.5q2 -12 2 -39t2 -41h-45q-2 14 -2 45t-2 45q0 55 13 116.5t51 118t93 56.5q49 0 96.5 -64.5 t72 -127t40.5 -120.5q61 -205 72 -512h4q152 295 152 508q0 55 -15.5 98.5t-33 64t-33 44t-15.5 45.5q0 27 19.5 45.5t46.5 18.5q33 0 53.5 -20.5t28.5 -59.5t9 -61.5t1 -61.5q0 -182 -64.5 -382t-166.5 -374q-41 -70 -94.5 -142.5t-125 -152.5t-153.5 -131t-152 -51 q-33 0 -57.5 16t-24.5 41z" />
<glyph unicode="z" horiz-adv-x="737" d="M98 2q0 14 7.5 32.5t20.5 39t24.5 35t29 35t21.5 26.5l417 541l-4 4q-90 -25 -149 -25q-29 0 -78 10.5t-74 10.5q-35 0 -53 -30t-16 -67q6 -29 -11 -28q-18 0 -29 38t-11 62q0 74 56 127t132 53q63 0 132 -58t101 -58q25 0 42.5 14t24.5 27.5t19 42.5q0 2 2.5 7l3.5 7 t3 7t4 7t5 6t5 6.5t6 4.5t8 3t8 1q33 0 33 -29q0 -23 -43 -80l-461 -608q98 16 144 16q55 0 141 -20q74 -12 78 -12q113 0 119 112q0 31 12 31q20 0 29.5 -37t9.5 -63q0 -96 -51 -158t-146 -62q-80 0 -186 70q-4 4 -23.5 17.5t-25.5 17.5t-22.5 13t-25 12t-21.5 6.5t-25 3.5 q-74 0 -101 -82q-18 -57 -49 -58q-33 0 -33 29z" />
<glyph unicode="{" horiz-adv-x="901" d="M350 -18l94 354q25 70 12.5 114t-35 63t-71.5 36l4 2q96 23 136 68t67 145l82 311q45 168 118.5 232.5t229.5 56.5l-4 -4q-150 -27 -199 -217l-88 -328q-29 -117 -77 -180.5t-152 -83.5h-4v-4q80 -14 104.5 -63.5t-4.5 -182.5l-94 -354q-29 -90 -10.5 -142.5t100.5 -76.5 l-4 -4q-158 2 -201 58.5t-4 199.5z" />
<glyph unicode="|" horiz-adv-x="778" d="M526 -512v2048h109v-2048h-109z" />
<glyph unicode="}" horiz-adv-x="901" d="M154 -276l4 4q150 27 198 217l88 327q29 117 77 180.5t153 84.5h4v4q-119 20 -119 131q0 45 19 114l94 355q16 59 16 94q2 92 -106 125l4 4q119 -2 171 -33t52 -104q2 -41 -18 -121l-95 -354q-14 -49 -14 -88q0 -53 26.5 -80t82.5 -45l-5 -2q-96 -23 -136 -68t-66 -145 l-82 -312q-45 -168 -118.5 -232t-229.5 -56z" />
<glyph unicode="~" d="M188 379q59 94 122 144t155 50q72 0 227 -61q162 -63 205 -63q41 0 77 21.5t55.5 44t47.5 65.5l82 -54q-43 -59 -70.5 -91t-77.5 -61.5t-110 -29.5q-66 0 -227 64q-152 61 -211 61q-45 0 -83 -22.5t-59.5 -48t-50.5 -72.5z" />
<glyph unicode="&#xa2;" d="M365 532q0 195 156.5 393.5t346.5 229.5l80 229h78l-78 -229q57 0 105.5 -35t48.5 -90q0 -31 -22.5 -55.5t-53.5 -24.5t-51.5 18.5t-20.5 47.5q0 18 10.5 37.5t10.5 27.5q0 23 -45 29l-273 -809q76 -4 141.5 37t100.5 87t82 126l41 -25q-61 -127 -158.5 -210t-222.5 -76 l-88 -267h-78l90 277q-92 25 -146 104.5t-54 177.5zM518 477q0 -119 72 -151l262 770q-123 -37 -228.5 -257.5t-105.5 -361.5z" />
<glyph unicode="&#xa3;" d="M145 117q0 68 58.5 111.5t128.5 43.5q33 0 143 -28l14 215l13 223h-256l18 66h246q47 266 100 372q129 250 377 250q82 0 162 -41t80 -117q0 -33 -20.5 -59.5t-53.5 -26.5q-47 0 -70.5 31t-28.5 69t-28.5 68.5t-73.5 30.5q-186 0 -252 -547q-2 -23 -4 -30h297l-18 -66 h-291q-39 -276 -135 -471q193 -80 307 -80q74 0 126 25.5t72.5 56.5t39 56.5t30.5 25.5q20 0 21 -21q0 -57 -57 -141q-102 -160 -261 -160q-57 0 -119.5 23.5t-101.5 49.5t-102 71q-86 -143 -213 -144q-61 0 -104.5 42.5t-43.5 101.5zM207 115q0 -39 27.5 -64.5t66.5 -25.5 q88 0 150 133q-86 53 -138 53q-45 0 -75.5 -25.5t-30.5 -70.5z" />
<glyph unicode="&#xa5;" d="M240 -4l12 45q6 0 41 2t48 5t39 8t43 16.5t32 27.5q23 23 47 109l71 258h-297l19 65h297l33 117l-27 86h-258l18 66h222l-82 274q-53 174 -86 203q-25 25 -68 29l12 45q41 0 125 -4.5t125 -4.5q43 0 129 4.5t129 4.5l-12 -45q-53 0 -86 -5.5t-62.5 -33t-29.5 -76.5 q0 -63 67 -289l54 -170l211 234q188 205 188 266q0 23 -11.5 38t-35 22t-36.5 9.5t-42 4.5l12 45q33 0 100.5 -4.5t102.5 -4.5q31 0 94.5 4.5t96.5 4.5l-13 -45q-18 -2 -35.5 -9.5t-32 -14.5t-31.5 -21.5t-27.5 -21.5t-29 -27.5t-24.5 -26.5t-25.5 -28.5t-23.5 -27.5 l-299 -329h240l-19 -66h-285l-61 -65l-37 -138h313l-18 -65h-313l-58 -207q-31 -100 -30.5 -133t20 -51.5t39.5 -22.5t60 -7t53 -5l-13 -45q-47 0 -143 4t-143 4q-51 0 -149.5 -4t-149.5 -4z" />
<glyph unicode="&#xa7;" horiz-adv-x="1024" d="M276 -70q0 49 30 83t77 34q39 0 67.5 -24.5t28.5 -63.5q0 -59 -61 -98q-25 -14 -25 -27q0 -33 52.5 -53.5t86.5 -20.5q84 0 144.5 49.5t60.5 131.5q0 20 -4 39.5t-17.5 43t-20.5 38t-29.5 41t-27.5 33.5t-32 36l-26 31l-60 69l-55 68q-115 145 -115 266q0 106 60.5 180 t164.5 74q37 0 91 -20l4 4q-133 141 -133 268q0 121 86 189.5t208 68.5q96 0 177.5 -53t81.5 -146q0 -49 -30 -80.5t-79 -31.5q-39 0 -63.5 24.5t-24.5 63.5q0 43 31 74q31 27 30 45q0 27 -44 43t-76 16q-72 0 -126.5 -45t-54.5 -117q0 -41 20.5 -85t40 -68.5t58.5 -67.5 l51 -59l82 -99q131 -160 131 -288q0 -102 -60.5 -180t-158.5 -78q-37 0 -90 16l-4 -4q131 -131 131 -264q0 -125 -94 -198t-223 -73q-100 0 -180.5 59.5t-80.5 155.5zM467 674q0 -84 108 -230q115 -145 209 -145q57 0 96.5 38t39.5 95q0 96 -129 246q-100 121 -195 121 q-53 0 -91 -36t-38 -89z" />
<glyph unicode="&#xa8;" horiz-adv-x="819" d="M483 1219q0 43 29 72.5t72 29.5q41 0 70.5 -29.5t29.5 -70.5t-29.5 -71t-70.5 -30t-71 29t-30 70zM819 1219q0 43 29 72.5t72 29.5q41 0 70.5 -29.5t29.5 -70.5t-29.5 -71t-70.5 -30t-71 29t-30 70z" />
<glyph unicode="&#xa9;" horiz-adv-x="1474" d="M260 668q0 297 184.5 499.5t485.5 202.5q305 0 494.5 -199.5t189.5 -496.5q0 -305 -189.5 -503t-496.5 -198q-297 0 -482.5 199t-185.5 496zM358 676q0 -279 163 -447t423 -168q250 0 411 171t161 442q0 274 -162 441t-422 167q-252 0 -413 -170t-161 -436zM522 668 q0 193 117 312.5t307 119.5q135 0 291 -56v-223h-61q-6 98 -62.5 157.5t-152.5 59.5q-135 0 -206 -101t-71 -243q0 -150 77 -261t216 -111q145 0 235 147l48 -18q-37 -94 -134.5 -147.5t-203.5 -53.5q-180 0 -290 118t-110 300z" />
<glyph unicode="&#xaa;" horiz-adv-x="737" d="M338 969q0 133 115.5 267t246.5 134q68 0 99 -55l16 39h107l-62 -154q-4 -12 -31.5 -88t-43 -130t-15.5 -89q0 -20 14 -21q45 0 123 164l41 -16q-4 -8 -24.5 -48t-31.5 -57.5t-33.5 -45t-47.5 -39t-55 -11.5q-37 0 -60.5 20.5t-23.5 55.5q0 16 4 37l-4 4 q-78 -117 -180 -117q-66 0 -110 42t-44 108zM446 936q0 -72 56 -72q63 0 126.5 80t99.5 175t36 155q0 23 -15.5 39t-37.5 16q-84 0 -174.5 -149.5t-90.5 -243.5z" />
<glyph unicode="&#xab;" horiz-adv-x="983" d="M317 414l324 260q2 0 12.5 10t21.5 17.5t15 7.5q14 0 15 -15q0 -4 -8.5 -14t-18.5 -21l-12 -12l-224 -237l129 -244q10 -14 11 -27q0 -14 -13 -14q-6 0 -26 20zM653 414l324 260q2 0 12 10t21.5 17.5t15.5 7.5q14 0 14 -15q0 -4 -8 -14t-18 -21l-13 -12l-223 -237 l129 -244q10 -14 11 -27q0 -14 -13 -14q-6 0 -26 20z" />
<glyph unicode="&#xac;" d="M209 532v109h907v-530h-108v421h-799z" />
<glyph unicode="&#xad;" horiz-adv-x="491" d="M121 393l16 109h471l-14 -109h-473z" />
<glyph unicode="&#xae;" horiz-adv-x="1474" d="M260 668q0 297 184.5 499.5t485.5 202.5q305 0 494.5 -199.5t189.5 -496.5q0 -305 -189.5 -503t-496.5 -198q-297 0 -482.5 199t-185.5 496zM358 676q0 -279 163 -447t423 -168q250 0 411 171t161 442q0 274 -162 441t-422 167q-252 0 -413 -170t-161 -436zM604 297v37 q63 0 78.5 12t15.5 47v621q0 35 -15 47t-79 12v37h326q158 0 237.5 -42t79.5 -159q0 -88 -65.5 -147.5t-153.5 -63.5v-4q39 -4 73 -40t52 -68.5t47 -93.5q4 -10 18.5 -41t19.5 -40.5t17.5 -30t22.5 -27.5t27.5 -13t35.5 -6v-37h-53q-8 0 -27.5 -1t-29.5 0t-25.5 3t-29 7 t-25.5 13q-31 25 -57.5 90.5t-45 123t-73.5 99.5t-141 34v-273q0 -37 14 -48t78 -11v-37h-322zM834 715h26q57 0 97 5t79 22.5t58.5 55.5t19.5 95q0 170 -186 170q-63 0 -78.5 -11.5t-15.5 -72.5v-264z" />
<glyph unicode="&#xb0;" horiz-adv-x="819" d="M399 1114q-2 104 74 180t182 76q104 0 180 -75.5t76 -180.5q0 -106 -75.5 -181t-180.5 -75q-106 0 -181 75t-75 181zM467 1114q0 -78 55.5 -133t133 -55t133 55t55.5 133t-56.5 133.5t-134.5 55.5q-76 0 -131 -55.5t-55 -133.5z" />
<glyph unicode="&#xb1;" d="M209 0v109h907v-109h-907zM209 502v108h399v297h109v-297h399v-108h-399v-297h-109v297h-399z" />
<glyph unicode="&#xb4;" horiz-adv-x="614" d="M440 1069l219 201q90 90 138 90q25 0 44 -19.5t19 -44.5q0 -12 -4 -23t-13 -21.5t-17.5 -18.5t-23 -16.5t-22.5 -12.5l-24 -12l-21 -10l-227 -113h-68z" />
<glyph unicode="&#xb5;" horiz-adv-x="1146" d="M147 -426q164 612 211 760l37 121q4 16 26.5 83.5t33 110.5t14.5 84q8 88 -23 88q-49 0 -114.5 -94t-108.5 -180l-43 20q152 315 312 316q57 0 90.5 -46t33.5 -106q0 -82 -49 -237l-86 -271q-29 -86 -28 -121q0 -31 20.5 -49t52.5 -18q61 0 130 67.5t110 137t72 139.5 l166 493h151l-78 -258q-6 -20 -27.5 -94t-31.5 -113.5t-25.5 -102t-22.5 -114t-7 -96.5q0 -59 34 -59q45 0 105.5 96t79.5 162l45 -17q-111 -303 -266 -303q-70 0 -107 44t-31 112q2 20 5 62t6 63l-5 4q-37 -61 -63.5 -98t-70.5 -87t-95 -75t-108 -25q-53 0 -86 25l-48 -270 q0 -6 -5 -37t-8 -45l-9 -43q-6 -29 -15.5 -45.5t-22.5 -35t-31.5 -26.5t-41.5 -8q-41 0 -63.5 24.5t-14.5 61.5z" />
<glyph unicode="&#x3bc;" horiz-adv-x="1146" d="M147 -426q164 612 211 760l37 121q4 16 26.5 83.5t33 110.5t14.5 84q8 88 -23 88q-49 0 -114.5 -94t-108.5 -180l-43 20q152 315 312 316q57 0 90.5 -46t33.5 -106q0 -82 -49 -237l-86 -271q-29 -86 -28 -121q0 -31 20.5 -49t52.5 -18q61 0 130 67.5t110 137t72 139.5 l166 493h151l-78 -258q-6 -20 -27.5 -94t-31.5 -113.5t-25.5 -102t-22.5 -114t-7 -96.5q0 -59 34 -59q45 0 105.5 96t79.5 162l45 -17q-111 -303 -266 -303q-70 0 -107 44t-31 112q2 20 5 62t6 63l-5 4q-37 -61 -63.5 -98t-70.5 -87t-95 -75t-108 -25q-53 0 -86 25l-48 -270 q0 -6 -5 -37t-8 -45l-9 -43q-6 -29 -15.5 -45.5t-22.5 -35t-31.5 -26.5t-41.5 -8q-41 0 -63.5 24.5t-14.5 61.5z" />
<glyph unicode="&#xb6;" horiz-adv-x="1024" d="M166 -272l10 45q10 0 58.5 2t64.5 5t46 17.5t48 40.5q33 45 94 268l146 525q-68 0 -110 3t-92 16.5t-77.5 39t-47 72.5t-19.5 115q0 109 54 217t144 168q164 104 404 90q141 -8 178 -9q55 0 167 4.5t167 4.5l-12 -45q-45 -2 -59.5 -3t-47.5 -7.5t-52.5 -20.5t-35.5 -41 q-37 -53 -94 -268l-240 -861q-55 -201 -55 -251q0 -39 25.5 -58.5t49 -21.5t70.5 -2h13l-11 -45h-325l430 1552h-117l-430 -1552h-344z" />
<glyph unicode="&#xb7;" horiz-adv-x="532" d="M264 451q0 45 33 78.5t78 33.5q49 0 80.5 -29.5t31.5 -76.5t-30.5 -82t-81.5 -35q-47 0 -79 32t-32 79z" />
<glyph unicode="&#x2219;" horiz-adv-x="532" d="M264 451q0 45 33 78.5t78 33.5q49 0 80.5 -29.5t31.5 -76.5t-30.5 -82t-81.5 -35q-47 0 -79 32t-32 79z" />
<glyph unicode="&#xb8;" horiz-adv-x="573" d="M86 -248q0 18 12.5 31.5t30.5 13.5q29 0 43 -39q8 -31 20.5 -42t40.5 -11q41 0 70 24.5t29 65.5q0 37 -35 51.5t-78 12.5l45 141h51l-30 -96q51 0 92 -29t41 -78q0 -66 -49.5 -101.5t-116.5 -35.5q-55 0 -110.5 22.5t-55.5 69.5z" />
<glyph unicode="&#xba;" horiz-adv-x="696" d="M354 1004q0 129 95.5 247.5t222.5 118.5q82 0 131 -60.5t49 -142.5q0 -119 -93 -233.5t-210 -114.5q-86 0 -140.5 49.5t-54.5 135.5zM463 944q0 -80 82 -80q61 0 109 76t68.5 161t20.5 146q0 33 -19 55.5t-54 22.5q-86 0 -146.5 -139.5t-60.5 -241.5z" />
<glyph unicode="&#xbb;" horiz-adv-x="983" d="M221 139q0 10 37 47l223 240l-129 242q-10 20 -10 28q0 12 14.5 12.5t24.5 -20.5l225 -268l-323 -258q-4 -6 -23.5 -21.5t-26.5 -15.5q-12 0 -12 14zM557 139q0 10 37 47l223 240l-129 242q-10 20 -10 28q0 12 14.5 12.5t24.5 -20.5l225 -268l-324 -258 q-4 -6 -23.5 -21.5t-25.5 -15.5q-12 0 -12 14z" />
<glyph unicode="&#xc0;" horiz-adv-x="1310" d="M18 -4l13 45q102 16 159 78q18 20 45 60t45.5 73t46 83t35.5 66l558 967h61l162 -1106q25 -156 41 -178q8 -10 20.5 -18.5t32.5 -12.5l31 -6q10 -2 37 -4l26 -2l-12 -45q-45 0 -136 4t-136 4q-43 0 -131.5 -4t-133.5 -4l11 45q8 0 33.5 2t36.5 3t31.5 5t30 10.5 t21.5 16.5t17.5 26.5t5.5 36.5q0 45 -13 123l-45 295h-397l-90 -170q-117 -233 -117 -285q0 -12 6 -22t20.5 -17.5t27 -11.5t32.5 -6l31 -3l31 -3h18l-12 -45q-39 0 -117 4t-117 4q-35 0 -104.5 -4t-104.5 -4zM549 621h352l-61 505h-4zM817 1769q0 27 19.5 49.5t46.5 22.5 q14 0 30.5 -8t33 -23.5t27.5 -26.5t27.5 -31.5t20.5 -25.5l164 -188h-58l-235 148q-2 2 -11.5 7t-13.5 8t-12 8t-12 9t-10.5 11.5t-9.5 12.5t-5 12t-2 15z" />
<glyph unicode="&#xc1;" horiz-adv-x="1310" d="M18 -4l13 45q102 16 159 78q18 20 45 60t45.5 73t46 83t35.5 66l558 967h61l162 -1106q25 -156 41 -178q8 -10 20.5 -18.5t32.5 -12.5l31 -6q10 -2 37 -4l26 -2l-12 -45q-45 0 -136 4t-136 4q-43 0 -131.5 -4t-133.5 -4l11 45q8 0 33.5 2t36.5 3t31.5 5t30 10.5 t21.5 16.5t17.5 26.5t5.5 36.5q0 45 -13 123l-45 295h-397l-90 -170q-117 -233 -117 -285q0 -12 6 -22t20.5 -17.5t27 -11.5t32.5 -6l31 -3l31 -3h18l-12 -45q-39 0 -117 4t-117 4q-35 0 -104.5 -4t-104.5 -4zM549 621h352l-61 505h-4zM850 1536l219 201q90 90 138 90 q25 0 44 -19.5t19 -44.5q0 -12 -4 -23t-13 -21.5t-17.5 -18.5t-23 -16.5t-22.5 -12.5l-24 -12l-21 -10l-227 -113h-68z" />
<glyph unicode="&#xc2;" horiz-adv-x="1310" d="M18 -4l13 45q102 16 159 78q18 20 45 60t45.5 73t46 83t35.5 66l558 967h61l162 -1106q25 -156 41 -178q8 -10 20.5 -18.5t32.5 -12.5l31 -6q10 -2 37 -4l26 -2l-12 -45q-45 0 -136 4t-136 4q-43 0 -131.5 -4t-133.5 -4l11 45q8 0 33.5 2t36.5 3t31.5 5t30 10.5 t21.5 16.5t17.5 26.5t5.5 36.5q0 45 -13 123l-45 295h-397l-90 -170q-117 -233 -117 -285q0 -12 6 -22t20.5 -17.5t27 -11.5t32.5 -6l31 -3l31 -3h18l-12 -45q-39 0 -117 4t-117 4q-35 0 -104.5 -4t-104.5 -4zM549 621h352l-61 505h-4zM692 1554l295 291h103l159 -291h-51 l-170 168l-260 -168h-76z" />
<glyph unicode="&#xc3;" horiz-adv-x="1310" d="M18 -4l13 45q102 16 159 78q18 20 45 60t45.5 73t46 83t35.5 66l558 967h61l162 -1106q25 -156 41 -178q8 -10 20.5 -18.5t32.5 -12.5l31 -6q10 -2 37 -4l26 -2l-12 -45q-45 0 -136 4t-136 4q-43 0 -131.5 -4t-133.5 -4l11 45q8 0 33.5 2t36.5 3t31.5 5t30 10.5 t21.5 16.5t17.5 26.5t5.5 36.5q0 45 -13 123l-45 295h-397l-90 -170q-117 -233 -117 -285q0 -12 6 -22t20.5 -17.5t27 -11.5t32.5 -6l31 -3l31 -3h18l-12 -45q-39 0 -117 4t-117 4q-35 0 -104.5 -4t-104.5 -4zM549 621h352l-61 505h-4zM702 1589q57 168 197 168 q45 0 135 -41t115 -41q51 0 84 72l47 -6q-10 -63 -57 -117.5t-109 -54.5q-55 0 -147.5 43t-120.5 43q-51 0 -94 -72z" />
<glyph unicode="&#xc4;" horiz-adv-x="1310" d="M18 -4l13 45q102 16 159 78q18 20 45 60t45.5 73t46 83t35.5 66l558 967h61l162 -1106q25 -156 41 -178q8 -10 20.5 -18.5t32.5 -12.5l31 -6q10 -2 37 -4l26 -2l-12 -45q-45 0 -136 4t-136 4q-43 0 -131.5 -4t-133.5 -4l11 45q8 0 33.5 2t36.5 3t31.5 5t30 10.5 t21.5 16.5t17.5 26.5t5.5 36.5q0 45 -13 123l-45 295h-397l-90 -170q-117 -233 -117 -285q0 -12 6 -22t20.5 -17.5t27 -11.5t32.5 -6l31 -3l31 -3h18l-12 -45q-39 0 -117 4t-117 4q-35 0 -104.5 -4t-104.5 -4zM549 621h352l-61 505h-4zM729 1686q0 43 29 72.5t72 29.5 q41 0 70.5 -29.5t29.5 -70.5t-29.5 -71t-70.5 -30t-71 29t-30 70zM1065 1686q0 43 29 72.5t72 29.5q41 0 70.5 -29.5t29.5 -70.5t-29.5 -71t-70.5 -30t-71 29t-30 70z" />
<glyph unicode="&#xc5;" horiz-adv-x="1310" d="M18 -4l13 45q102 16 159 78q18 20 45 60t45.5 73t46 83t35.5 66l558 967h61l162 -1106q25 -156 41 -178q8 -10 20.5 -18.5t32.5 -12.5l31 -6q10 -2 37 -4l26 -2l-12 -45q-45 0 -136 4t-136 4q-43 0 -131.5 -4t-133.5 -4l11 45q8 0 33.5 2t36.5 3t31.5 5t30 10.5 t21.5 16.5t17.5 26.5t5.5 36.5q0 45 -13 123l-45 295h-397l-90 -170q-117 -233 -117 -285q0 -12 6 -22t20.5 -17.5t27 -11.5t32.5 -6l31 -3l31 -3h18l-12 -45q-39 0 -117 4t-117 4q-35 0 -104.5 -4t-104.5 -4zM549 621h352l-61 505h-4zM778 1643q0 88 62.5 150.5t152.5 62.5 q88 0 149.5 -62.5t61.5 -150.5q0 -86 -63.5 -146.5t-149.5 -60.5t-149.5 60.5t-63.5 146.5zM852 1643q0 -57 41 -98.5t98 -41.5t98 41t41 99q0 61 -39 103t-100 42q-59 0 -99 -43t-40 -102z" />
<glyph unicode="&#xc6;" horiz-adv-x="1884" d="M55 -4l11 39q61 6 97 35.5t79 91.5l243 323q27 33 124.5 153t159.5 196.5t141 176t119 158t40 72.5q0 20 -6 31.5t-25.5 17.5t-34 8t-50 4.5t-56.5 4.5l10 45q59 0 180 -4.5t183 -4.5q115 0 346 4.5t346 4.5l29 -312h-39q-12 45 -26.5 80t-27 61.5t-34 47t-33.5 34 t-42 22.5t-44 13.5t-52 6.5t-55.5 3t-65.5 0t-69 -1h-123l-145 -557h154q96 0 147 43t106 174h41l-106 -523h-45l6 84q0 129 -59 156q-43 20 -133 21h-123l-117 -435q-14 -57 -14 -98t12 -65.5t35.5 -39t55.5 -19.5t70 -7t81 0h47q123 0 202.5 34t130 95t105.5 178h45 l-94 -352q-137 0 -411.5 4t-412.5 4q-49 0 -148 -4t-148 -4l10 45q68 -2 106.5 6t64 41t35 61.5t29.5 100.5l109 412h-324q-10 -12 -66.5 -83t-99.5 -128.5t-95 -130t-82 -129t-30 -85.5q0 -33 23 -46t74 -18t57 -7l-10 -39q-35 0 -105.5 4t-105.5 4q-33 0 -98.5 -4 t-98.5 -4zM735 707h295l144 532l-5 4z" />
<glyph unicode="&#xc7;" horiz-adv-x="1269" d="M258 494q0 211 101.5 411.5t285.5 332.5t397 132q92 0 163 -24.5t163 -81.5l72 73h20l-78 -381h-41q-6 82 -18 141.5t-42 115t-86 84t-140 28.5q-137 0 -254 -97.5t-187.5 -241.5t-110.5 -295.5t-40 -276.5q0 -178 86 -287t260 -109q57 0 107.5 13.5t88 30t76.5 53.5 t61.5 62.5t56.5 78.5t48.5 81t48.5 91h43l-108 -432h-23l-24 106q-102 -72 -196.5 -100.5t-219.5 -28.5q-20 0 -31 4l-22 -73q51 0 92 -29t41 -78q0 -66 -49 -101.5t-117 -35.5q-55 0 -110.5 22.5t-55.5 69.5q0 18 12.5 31.5t30.5 13.5q29 0 43 -39q8 -31 20.5 -42t41.5 -11 q41 0 69.5 24.5t28.5 65.5q0 37 -35 51.5t-78 12.5l39 123q-197 23 -313.5 163t-116.5 349z" />
<glyph unicode="&#xc8;" horiz-adv-x="1146" d="M-8 -4l12 45q68 -2 107 6t64.5 41t34.5 61.5t30 100.5l221 827q35 139 35 154q0 76 -154 76l12 45q43 0 128 -4.5t128 -4.5q115 0 342.5 4.5t341.5 4.5l29 -312h-39q-43 154 -110.5 210.5t-186.5 56.5h-272l-148 -557h158q92 0 142.5 43t107.5 174h37l-107 -523h-41 q0 10 3 58.5t2 74t-15 58.5t-43 49q-35 20 -111 21h-145l-117 -435q-20 -70 -20 -108q0 -29 11 -50.5t37 -35t45 -21.5t59 -11t56.5 -4t57.5 1h41q178 0 266 67.5t170 239.5h47l-94 -352q-139 0 -417.5 4t-417.5 4q-49 0 -143.5 -4t-143.5 -4zM735 1769q0 27 19.5 49.5 t46.5 22.5q14 0 30.5 -8t33 -23.5t27.5 -26.5t27.5 -31.5t20.5 -25.5l164 -188h-57l-236 148q-2 2 -11 7t-13.5 8t-12.5 8t-12 9t-10.5 11.5t-9.5 12.5t-5 12t-2 15z" />
<glyph unicode="&#xc9;" horiz-adv-x="1146" d="M-8 -4l12 45h26q49 0 81 6q39 8 64.5 41t34.5 61.5t30 100.5l221 827q35 139 35 154q0 76 -154 76l12 45q43 0 128 -4.5t128 -4.5q115 0 342.5 4.5t341.5 4.5l29 -312h-39q-43 154 -110.5 210.5t-186.5 56.5h-272l-148 -557h158q92 0 142.5 43t107.5 174h37l-107 -523 h-41q0 10 3 59q2 36 3 59q0 8 -1 15q-1 26 -15 58.5t-43 48.5q-35 20 -111 21h-145l-117 -435q-20 -70 -20 -108q0 -29 11 -50.5t37 -35t45 -21.5t59 -11t56.5 -4t57.5 1h41q178 0 266 67.5t170 239.5h47l-94 -352q-139 0 -417.5 4t-417.5 4q-49 0 -143.5 -4t-143.5 -4z M768 1536l219 201q90 90 138 90q25 0 44 -19.5t19 -44.5q0 -12 -4 -23t-13 -21.5t-17.5 -18.5t-23 -16.5t-22.5 -12.5l-24 -12l-21 -10l-227 -113h-68z" />
<glyph unicode="&#xca;" horiz-adv-x="1146" d="M-8 -4l12 45q68 -2 107 6t64.5 41t34.5 61.5t30 100.5l221 827q35 139 35 154q0 76 -154 76l12 45q43 0 128 -4.5t128 -4.5q115 0 342.5 4.5t341.5 4.5l29 -312h-39q-43 154 -110.5 210.5t-186.5 56.5h-272l-148 -557h158q92 0 142.5 43t107.5 174h37l-107 -523h-41 q0 10 3 58.5t2 74t-15 58.5t-43 49q-35 20 -111 21h-145l-117 -435q-20 -70 -20 -108q0 -29 11 -50.5t37 -35t45 -21.5t59 -11t56.5 -4t57.5 1h41q178 0 266 67.5t170 239.5h47l-94 -352q-139 0 -417.5 4t-417.5 4q-49 0 -143.5 -4t-143.5 -4zM610 1554l295 291h103 l159 -291h-51l-170 168l-260 -168h-76z" />
<glyph unicode="&#xcb;" horiz-adv-x="1146" d="M-8 -4l12 45h26q49 0 81 6q39 8 64.5 41t34.5 61.5t30 100.5l221 827q35 139 35 154q0 76 -154 76l12 45q43 0 128 -4.5t128 -4.5q115 0 342.5 4.5t341.5 4.5l29 -312h-39q-43 154 -110.5 210.5t-186.5 56.5h-272l-148 -557h158q92 0 142.5 43t107.5 174h37l-107 -523 h-41q0 10 3 59q2 36 3 59q0 8 -1 15q-1 26 -15 58.5t-43 48.5q-35 20 -111 21h-145l-117 -435q-20 -70 -20 -108q0 -29 11 -50.5t37 -35t45 -21.5t59 -11t56.5 -4t57.5 1h41q178 0 266 67.5t170 239.5h47l-94 -352q-139 0 -417.5 4t-417.5 4q-49 0 -143.5 -4t-143.5 -4z M647 1686q0 43 29 72.5t72 29.5q41 0 70.5 -29.5t29.5 -70.5t-29.5 -71t-70.5 -30t-71 29t-30 70zM983 1686q0 43 29 72.5t72 29.5q41 0 70.5 -29.5t29.5 -70.5t-29.5 -71t-70.5 -30t-71 29t-30 70z" />
<glyph unicode="&#xcc;" horiz-adv-x="696" d="M53 -4l13 45q45 -2 76.5 1t55 17.5t37 24.5t27.5 44t20.5 52.5t20.5 69.5l238 827q35 139 34 154q0 16 -5 29.5t-18 21.5t-24.5 13t-33 7.5t-32.5 3.5t-36 1h-33l13 45q45 0 133 -4.5t131 -4.5q53 0 158.5 4.5t158.5 4.5l-12 -45q-141 -4 -174 -52q-27 -33 -86 -237 l-217 -752q-2 -8 -13.5 -45t-18.5 -67.5t-7 -44.5q0 -16 5 -28.5t17.5 -19t24.5 -11.5t31.5 -6t33 -2t34.5 -1h32l-14 -45q-49 0 -145.5 4t-143.5 4t-140.5 -4t-140.5 -4zM510 1769q0 27 19.5 49.5t45.5 22.5q14 0 31 -8t33 -23.5t27.5 -26.5t28 -31.5t20.5 -25.5l164 -188 h-58l-235 148q-2 2 -11.5 7t-13.5 8t-12 8t-12.5 9t-10.5 11.5t-9 12.5t-5 12t-2 15z" />
<glyph unicode="&#xcd;" horiz-adv-x="696" d="M53 -4l13 45q18 -1 33 -1q24 0 43 2q32 3 55.5 17.5t37 24.5t27.5 44t20.5 52.5t20.5 69.5l238 827q35 139 34 154q0 16 -5 29.5t-18 21.5t-24.5 13t-33 7.5t-32.5 3.5t-36 1h-33l13 45q45 0 133 -4.5t131 -4.5q53 0 158.5 4.5t158.5 4.5l-12 -45q-141 -4 -174 -52 q-27 -33 -86 -237l-217 -752q-2 -8 -13.5 -45t-18.5 -67.5t-7 -44.5q0 -16 5 -28.5t17.5 -19t24.5 -11.5t31.5 -6t33 -2t34.5 -1h32l-14 -45q-49 0 -145.5 4t-143.5 4t-140.5 -4t-140.5 -4zM604 1536l219 201q90 90 138 90q25 0 44 -19.5t19 -44.5q0 -12 -4 -23t-13 -21.5 t-17.5 -18.5t-23 -16.5t-22.5 -12.5l-24 -12l-21 -10l-227 -113h-68z" />
<glyph unicode="&#xce;" horiz-adv-x="696" d="M53 -4l13 45q45 -2 76.5 1t55 17.5t37 24.5t27.5 44t20.5 52.5t20.5 69.5l238 827q35 139 34 154q0 16 -5 29.5t-18 21.5t-24.5 13t-33 7.5t-32.5 3.5t-36 1h-33l13 45q45 0 133 -4.5t131 -4.5q53 0 158.5 4.5t158.5 4.5l-12 -45q-141 -4 -174 -52q-27 -33 -86 -237 l-217 -752q-2 -8 -13.5 -45t-18.5 -67.5t-7 -44.5q0 -16 5 -28.5t17.5 -19t24.5 -11.5t31.5 -6t33 -2t34.5 -1h32l-14 -45q-49 0 -145.5 4t-143.5 4t-140.5 -4t-140.5 -4zM426 1554l295 291h102l160 -291h-51l-170 168l-260 -168h-76z" />
<glyph unicode="&#xcf;" horiz-adv-x="696" d="M53 -4l13 45q18 -1 33 -1q24 0 43 2q32 3 55.5 17.5t37 24.5t27.5 44t20.5 52.5t20.5 69.5l238 827q35 139 34 154q0 16 -5 29.5t-18 21.5t-24.5 13t-33 7.5t-32.5 3.5t-36 1h-33l13 45q45 0 133 -4.5t131 -4.5q53 0 158.5 4.5t158.5 4.5l-12 -45q-141 -4 -174 -52 q-27 -33 -86 -237l-217 -752q-2 -8 -13.5 -45t-18.5 -67.5t-7 -44.5q0 -16 5 -28.5t17.5 -19t24.5 -11.5t31.5 -6t33 -2t34.5 -1h32l-14 -45q-49 0 -145.5 4t-143.5 4t-140.5 -4t-140.5 -4zM503 1686q0 43 29 72.5t72 29.5q41 0 70.5 -29.5t29.5 -70.5t-29.5 -71t-70.5 -30 t-71 29t-30 70zM839 1686q0 43 29 72.5t72 29.5q41 0 70.5 -29.5t29.5 -70.5t-29.5 -71t-70.5 -30t-71 29t-30 70z" />
<glyph unicode="&#xd0;" horiz-adv-x="1351" d="M-8 -4l12 45h37q53 0 86 11t55.5 44t31.5 59.5t28 94.5l116 434h-170l25 66h164l86 327q2 10 13 48t18.5 69t7.5 41q0 72 -142 72h-38l12 45q29 0 125 -4.5t147 -4.5q31 0 120 4.5t138 4.5q221 0 389 -138q193 -160 193 -426q0 -162 -65.5 -314t-182.5 -265 q-123 -119 -261 -166t-314 -47q-68 0 -192 4t-181 4q-49 0 -139 -4t-119 -4zM428 162q0 -41 17.5 -67.5t52 -37t62.5 -13.5t71 -3q168 0 279.5 73.5t193.5 229.5q137 258 137 547q0 201 -105.5 308.5t-289.5 107.5q-88 0 -108.5 -13.5t-41.5 -85.5l-123 -458h271l-25 -66 h-264l-82 -305q-45 -158 -45 -217z" />
<glyph unicode="&#xd1;" horiz-adv-x="1433" d="M72 -4l10 45q45 6 64.5 10t49 14.5t48 30t35.5 51.5q41 78 124 385l170 639q-51 96 -78.5 114t-138.5 22l13 45q29 0 88 -4.5t90 -4.5q27 0 76 4.5t75 4.5l545 -1100l180 670q49 186 50 266q0 51 -27 77.5t-49.5 30.5t-83.5 9q-10 2 -17 2l13 45q37 0 109.5 -4.5 t109.5 -4.5t114.5 4.5t114.5 4.5l-10 -45q-55 0 -93 -15.5t-61.5 -51.5t-37 -67.5t-29.5 -91.5l-297 -1118h-47l-568 1143l-159 -594q-74 -274 -74 -360q0 -47 27.5 -73t58.5 -31t80 -7h14l-12 -45q-41 0 -121 4t-121 4q-39 0 -117.5 -4t-117.5 -4zM805 1589q57 168 196 168 q45 0 135.5 -41t114.5 -41q51 0 84 72l47 -6q-10 -63 -57 -117.5t-109 -54.5q-55 0 -147 43t-121 43q-51 0 -94 -72z" />
<glyph unicode="&#xd2;" horiz-adv-x="1433" d="M258 494q0 209 102.5 409.5t288 333.5t395.5 133q227 0 367.5 -149.5t140.5 -376.5q0 -207 -106.5 -407.5t-294.5 -332t-399 -131.5q-231 0 -362.5 144t-131.5 377zM463 377q0 -147 70.5 -253t211.5 -106q139 0 259 101.5t192 252t112 308.5t40 285q0 135 -74 247.5 t-203 112.5q-137 0 -257 -102.5t-193.5 -254t-115.5 -309t-42 -282.5zM879 1769q0 27 19.5 49.5t45.5 22.5q14 0 30.5 -8t33 -23.5t28 -26.5t27.5 -31.5t20 -25.5l164 -188h-57l-236 148q-2 2 -11 7t-13 8t-12.5 8t-12.5 9t-10 11.5t-9 12.5t-5 12t-2 15z" />
<glyph unicode="&#xd3;" horiz-adv-x="1433" d="M258 494q0 209 102.5 409.5t288 333.5t395.5 133q227 0 367.5 -149.5t140.5 -376.5q0 -207 -106.5 -407.5t-294.5 -332t-399 -131.5q-231 0 -362.5 144t-131.5 377zM463 377q0 -147 70.5 -253t211.5 -106q139 0 259 101.5t192 252t112 308.5t40 285q0 135 -74 247.5 t-203 112.5q-137 0 -257 -102.5t-193.5 -254t-115.5 -309t-42 -282.5zM911 1536l219 201q90 90 138 90q25 0 44 -19.5t19 -44.5q0 -12 -4 -23t-13 -21.5t-17.5 -18.5t-23 -16.5t-22.5 -12.5l-24 -12l-21 -10l-227 -113h-68z" />
<glyph unicode="&#xd4;" horiz-adv-x="1433" d="M258 494q0 209 102.5 409.5t288 333.5t395.5 133q227 0 367.5 -149.5t140.5 -376.5q0 -207 -106.5 -407.5t-294.5 -332t-399 -131.5q-231 0 -362.5 144t-131.5 377zM463 377q0 -147 70.5 -253t211.5 -106q139 0 259 101.5t192 252t112 308.5t40 285q0 135 -74 247.5 t-203 112.5q-137 0 -257 -102.5t-193.5 -254t-115.5 -309t-42 -282.5zM795 1554l295 291h102l160 -291h-52l-170 168l-260 -168h-75z" />
<glyph unicode="&#xd5;" horiz-adv-x="1433" d="M258 494q0 209 102.5 409.5t288 333.5t395.5 133q227 0 367.5 -149.5t140.5 -376.5q0 -207 -106.5 -407.5t-294.5 -332t-399 -131.5q-231 0 -362.5 144t-131.5 377zM463 377q0 -147 70.5 -253t211.5 -106q139 0 259 101.5t192 252t112 308.5t40 285q0 135 -74 247.5 t-203 112.5q-137 0 -257 -102.5t-193.5 -254t-115.5 -309t-42 -282.5zM805 1589q57 168 196 168q45 0 135.5 -41t114.5 -41q51 0 84 72l47 -6q-10 -63 -57 -117.5t-109 -54.5q-55 0 -147 43t-121 43q-51 0 -94 -72z" />
<glyph unicode="&#xd6;" horiz-adv-x="1433" d="M258 494q0 209 102.5 409.5t288 333.5t395.5 133q227 0 367.5 -149.5t140.5 -376.5q0 -207 -106.5 -407.5t-294.5 -332t-399 -131.5q-231 0 -362.5 144t-131.5 377zM463 377q0 -147 70.5 -253t211.5 -106q139 0 259 101.5t192 252t112 308.5t40 285q0 135 -74 247.5 t-203 112.5q-137 0 -257 -102.5t-193.5 -254t-115.5 -309t-42 -282.5zM831 1686q0 43 29 72.5t72 29.5q41 0 70.5 -29.5t29.5 -70.5t-29.5 -71t-70.5 -30t-71 29t-30 70zM1167 1686q0 43 29 72.5t72 29.5q41 0 70.5 -29.5t29.5 -70.5t-29.5 -71t-70.5 -30t-71 29t-30 70z " />
<glyph unicode="&#xd8;" horiz-adv-x="1433" d="M258 489q0 205 100.5 408t281.5 338t390 135q100 0 215 -37l133 209h84l-147 -239q227 -154 227 -445q0 -215 -104.5 -417.5t-292 -335t-404.5 -132.5q-98 0 -206 33l-144 -235h-92l164 270q-205 133 -205 448zM463 383q0 -137 59 -244l688 1135q-68 51 -149 51 q-137 0 -257 -103.5t-190.5 -255t-110.5 -307t-40 -276.5zM573 70q59 -51 158 -52q119 0 221.5 67t171 170t118.5 230t72.5 248t22.5 221q0 168 -67 260z" />
<glyph unicode="&#xd9;" horiz-adv-x="1392" d="M309 328q0 31 7.5 71.5t15.5 70.5t21.5 77t19.5 67l125 463q39 133 39 158q0 23 -12.5 38t-39 22.5t-43 9.5t-50.5 2h-36l13 45q45 0 135 -4.5t135 -4.5q51 0 153.5 4.5t153.5 4.5l-12 -45q-139 -4 -174 -54q-27 -33 -86 -237l-125 -469q-4 -18 -14.5 -56t-15.5 -60.5 t-10 -55.5t-5 -62q0 -131 89 -204.5t222 -73.5q84 0 152.5 26.5t113.5 66.5t83 107.5t59.5 125t48.5 143.5q43 137 103.5 373.5t60.5 312.5q0 39 -13.5 63.5t-42 34.5t-50 13.5t-62.5 5.5l12 45q76 -4 219 -9q76 0 232 9l-13 -45q-59 0 -99 -16.5t-64.5 -56.5t-36 -72 t-27.5 -97l-107 -381q-84 -295 -131 -393q-123 -264 -360 -307q-53 -10 -115 -11q-119 0 -220 33t-175 116t-74 206zM858 1769q0 27 19.5 49.5t46.5 22.5q14 0 30.5 -8t33 -23.5t27.5 -26.5t27.5 -31.5t20.5 -25.5l164 -188h-58l-235 148q-2 2 -11.5 7t-13.5 8t-12 8t-12 9 t-10.5 11.5t-9.5 12.5t-5 12t-2 15z" />
<glyph unicode="&#xda;" horiz-adv-x="1392" d="M309 328q0 31 7.5 71.5t15.5 70.5t21.5 77t19.5 67l125 463q39 133 39 158q0 23 -12.5 38t-39 22.5t-43 9.5t-50.5 2h-36l13 45q45 0 135 -4.5t135 -4.5q51 0 153.5 4.5t153.5 4.5l-12 -45q-139 -4 -174 -54q-27 -33 -86 -237l-125 -469q-4 -18 -14.5 -56t-15.5 -60.5 t-10 -55.5t-5 -62q0 -131 89 -204.5t222 -73.5q84 0 152.5 26.5t113.5 66.5t83 107.5t59.5 125t48.5 143.5q43 137 103.5 373.5t60.5 312.5q0 39 -13.5 63.5t-42 34.5t-50 13.5t-62.5 5.5l12 45q76 -4 219 -9q76 0 232 9l-13 -45q-59 0 -99 -16.5t-64.5 -56.5t-36 -72 t-27.5 -97l-107 -381q-84 -295 -131 -393q-123 -264 -360 -307q-53 -10 -115 -11q-119 0 -220 33t-175 116t-74 206zM952 1536l219 201q90 90 138 90q25 0 44 -19.5t19 -44.5q0 -12 -4 -23t-13 -21.5t-17.5 -18.5t-23 -16.5t-22.5 -12.5l-24 -12l-21 -10l-227 -113h-68z" />
<glyph unicode="&#xdb;" horiz-adv-x="1392" d="M309 328q0 31 7.5 71.5t15.5 70.5t21.5 77t19.5 67l125 463q39 133 39 158q0 23 -12.5 38t-39 22.5t-43 9.5t-50.5 2h-36l13 45q45 0 135 -4.5t135 -4.5q51 0 153.5 4.5t153.5 4.5l-12 -45q-139 -4 -174 -54q-27 -33 -86 -237l-125 -469q-4 -18 -14.5 -56t-15.5 -60.5 t-10 -55.5t-5 -62q0 -131 89 -204.5t222 -73.5q84 0 152.5 26.5t113.5 66.5t83 107.5t59.5 125t48.5 143.5q43 137 103.5 373.5t60.5 312.5q0 39 -13.5 63.5t-42 34.5t-50 13.5t-62.5 5.5l12 45q76 -4 219 -9q76 0 232 9l-13 -45q-59 0 -99 -16.5t-64.5 -56.5t-36 -72 t-27.5 -97l-107 -381q-84 -295 -131 -393q-123 -264 -360 -307q-53 -10 -115 -11q-119 0 -220 33t-175 116t-74 206zM733 1554l295 291h102l160 -291h-51l-170 168l-260 -168h-76z" />
<glyph unicode="&#xdc;" horiz-adv-x="1392" d="M309 328q0 31 7.5 71.5t15.5 70.5t21.5 77t19.5 67l125 463q39 133 39 158q0 23 -12.5 38t-39 22.5t-43 9.5t-50.5 2h-36l13 45q45 0 135 -4.5t135 -4.5q51 0 153.5 4.5t153.5 4.5l-12 -45q-139 -4 -174 -54q-27 -33 -86 -237l-125 -469q-4 -18 -14.5 -56t-15.5 -60.5 t-10 -55.5t-5 -62q0 -131 89 -204.5t222 -73.5q84 0 152.5 26.5t113.5 66.5t83 107.5t59.5 125t48.5 143.5q43 137 103.5 373.5t60.5 312.5q0 39 -13.5 63.5t-42 34.5t-50 13.5t-62.5 5.5l12 45q76 -4 219 -9q76 0 232 9l-13 -45q-59 0 -99 -16.5t-64.5 -56.5t-36 -72 t-27.5 -97l-107 -381q-84 -295 -131 -393q-123 -264 -360 -307q-53 -10 -115 -11q-119 0 -220 33t-175 116t-74 206zM831 1686q0 43 29 72.5t72 29.5q41 0 70.5 -29.5t29.5 -70.5t-29.5 -71t-70.5 -30t-71 29t-30 70zM1167 1686q0 43 29 72.5t72 29.5q41 0 70.5 -29.5 t29.5 -70.5t-29.5 -71t-70.5 -30t-71 29t-30 70z" />
<glyph unicode="&#xdd;" horiz-adv-x="1187" d="M301 -4l10 45h26q49 0 81 6q39 8 64.5 41t34.5 61.5t30 100.5l96 362l-149 506q-29 111 -52 142q-31 43 -135 47l12 45q41 0 123 -4.5t123 -4.5q43 0 129 4.5t129 4.5l-12 -45q-2 0 -23.5 -1t-28.5 -1t-26.5 -3.5t-28 -7.5t-19.5 -11t-16 -19.5t-5 -26.5q0 -27 8 -57 l149 -518q4 4 135 153.5t214 261t83 156.5q0 12 -3 22.5t-10 17.5t-14 12t-19.5 9t-19.5 6.5t-22.5 3.5t-22.5 2t-23 1h-17l12 45q33 0 97.5 -4.5t97.5 -4.5q35 0 103.5 4.5t103.5 4.5l-13 -45q-20 2 -41.5 -5.5t-35 -14.5t-34 -28.5t-27.5 -28.5t-28.5 -36t-23.5 -31 l-479 -581l-99 -369q-20 -74 -20 -100q0 -16 6 -29.5t17.5 -21t25.5 -12.5t30.5 -6t34 -2t33.5 -1h33l-10 -45q-53 0 -157.5 4t-156.5 4q-45 0 -135 -4t-135 -4zM850 1536l219 201q90 90 138 90q25 0 44 -19.5t19 -44.5q0 -12 -4 -23t-13 -21.5t-17.5 -18.5t-23 -16.5 t-22.5 -12.5l-24 -12l-21 -10l-227 -113h-68z" />
<glyph unicode="&#xde;" horiz-adv-x="1146" d="M31 -4l12 45q45 -2 77 1t55.5 17.5t36.5 24.5t27.5 44t20.5 52.5t21 69.5l221 827q39 133 39 158q0 23 -12.5 38t-39 22.5t-43 9.5t-50.5 2h-36l13 45q16 0 107 -3t157 -6q53 0 158.5 4.5t158.5 4.5l-12 -45q-141 -4 -174 -52q-29 -37 -74 -194l-6 -25q18 -2 84 -2 q96 -2 173 -14t160 -43t130 -97.5t49 -164.5q-2 -117 -59.5 -200t-150.5 -125t-190.5 -60.5t-205.5 -18.5q-31 0 -91.5 4t-90.5 4l-15 -53q-2 -8 -13 -45t-18.5 -67.5t-7.5 -44.5q0 -16 5.5 -28.5t17.5 -19t24.5 -11.5t32 -6t32.5 -2t35 -1h32l-15 -45q-41 0 -140 3t-153 5 q-47 0 -140 -3t-142 -5zM508 371q23 -2 68 -5.5t67 -5.5q190 0 313 102.5t123 291.5q0 119 -80.5 177t-201.5 58q-106 0 -129 -35q-6 -10 -23 -75z" />
<glyph unicode="&#xdf;" horiz-adv-x="942" d="M-215 -440q0 25 14.5 42t38.5 17q47 0 70 -74q8 -29 19.5 -41t39.5 -12q109 0 164 178q80 248 129 436l234 904q14 59 37.5 114.5t62.5 119t99.5 102t133.5 38.5q115 0 180.5 -79.5t65.5 -198.5q0 -145 -86 -236.5t-231 -115.5v-4q231 -33 231 -289q0 -100 -45 -211 t-134 -194t-192 -83q-57 0 -97 27t-40 80q0 33 16.5 57.5t49.5 24.5q27 0 42 -16.5t15 -43.5q0 -20 -9 -36.5t-9 -22.5q0 -25 20 -25q37 0 76 47.5t63 94.5q39 78 68 186.5t29 190.5q0 96 -45 138t-90.5 52t-45.5 29q0 25 43 28q115 16 169.5 132t54.5 249q0 174 -107 174 q-35 0 -63.5 -27.5t-51 -84t-38 -111.5t-35.5 -139l-6 -27l-215 -860q-16 -68 -20.5 -82t-24 -86t-30.5 -99.5t-37 -90t-47.5 -92t-55 -74.5t-67.5 -65.5t-78 -37t-93 -16.5q-63 0 -117.5 28t-54.5 85z" />
<glyph unicode="&#xe0;" horiz-adv-x="1024" d="M186 215q0 98 47.5 216t122 217.5t179 167t206.5 67.5q113 0 156 -111l31 84h145l-90 -244q-41 -111 -88 -279.5t-47 -248.5q0 -49 26 -49q14 0 31 11t34 33.5t32.5 44t33 55.5t26.5 51.5t25.5 49t16.5 33.5l43 -18q-8 -16 -36.5 -76.5t-46 -90.5t-49.5 -73t-69.5 -62.5 t-83.5 -19.5q-55 0 -88.5 31t-33.5 86q0 6 18 117l-4 4q-133 -238 -305 -238q-100 0 -166 70t-66 172zM334 158q0 -53 25.5 -96.5t74.5 -43.5q154 0 301 312q119 258 119 399q0 43 -26.5 76t-69.5 33q-94 0 -197.5 -136.5t-165 -296t-61.5 -247.5zM582 1303q0 27 19.5 49 t45.5 22q14 0 30.5 -8t33 -23.5t28 -26.5t27.5 -31.5t20 -24.5l164 -189h-57l-236 148q-2 2 -11 7t-13 8t-12.5 8t-12.5 9t-10 11.5t-9 12.5t-5 12.5t-2 15.5z" />
<glyph unicode="&#xe1;" horiz-adv-x="1024" d="M186 215q0 98 47.5 216t122 217.5t179 167t206.5 67.5q113 0 156 -111l31 84h145l-90 -244q-41 -111 -88 -279.5t-47 -248.5q0 -49 26 -49q14 0 31 11t34 33.5t32.5 44t33 55.5t26.5 51.5t25.5 49t16.5 33.5l43 -18q-8 -16 -36.5 -76.5t-46 -90.5t-49.5 -73t-69.5 -62.5 t-83.5 -19.5q-55 0 -88.5 31t-33.5 86q0 6 18 117l-4 4q-133 -238 -305 -238q-100 0 -166 70t-66 172zM334 158q0 -53 25.5 -96.5t74.5 -43.5q154 0 301 312q119 258 119 399q0 43 -26.5 76t-69.5 33q-94 0 -197.5 -136.5t-165 -296t-61.5 -247.5zM645 1069l219 201 q90 90 138 90q25 0 44 -19.5t19 -44.5q0 -12 -4 -23t-13 -21.5t-17.5 -18.5t-23 -16.5t-22.5 -12.5l-24 -12l-21 -10l-227 -113h-68z" />
<glyph unicode="&#xe2;" horiz-adv-x="1024" d="M186 215q0 98 47.5 216t122 217.5t179 167t206.5 67.5q113 0 156 -111l31 84h145l-90 -244q-41 -111 -88 -279.5t-47 -248.5q0 -49 26 -49q14 0 31 11t34 33.5t32.5 44t33 55.5t26.5 51.5t25.5 49t16.5 33.5l43 -18q-8 -16 -36.5 -76.5t-46 -90.5t-49.5 -73t-69.5 -62.5 t-83.5 -19.5q-55 0 -88.5 31t-33.5 86q0 6 18 117l-4 4q-133 -238 -305 -238q-100 0 -166 70t-66 172zM334 158q0 -53 25.5 -96.5t74.5 -43.5q154 0 301 312q119 258 119 399q0 43 -26.5 76t-69.5 33q-94 0 -197.5 -136.5t-165 -296t-61.5 -247.5zM549 1087l295 291h102 l160 -291h-51l-170 168l-260 -168h-76z" />
<glyph unicode="&#xe3;" horiz-adv-x="1024" d="M186 215q0 98 47.5 216t122 217.5t179 167t206.5 67.5q113 0 156 -111l31 84h145l-90 -244q-41 -111 -88 -279.5t-47 -248.5q0 -49 26 -49q14 0 31 11t34 33.5t32.5 44t33 55.5t26.5 51.5t25.5 49t16.5 33.5l43 -18q-8 -16 -36.5 -76.5t-46 -90.5t-49.5 -73t-69.5 -62.5 t-83.5 -19.5q-55 0 -88.5 31t-33.5 86q0 6 18 117l-4 4q-133 -238 -305 -238q-100 0 -166 70t-66 172zM334 158q0 -53 25.5 -96.5t74.5 -43.5q154 0 301 312q119 258 119 399q0 43 -26.5 76t-69.5 33q-94 0 -197.5 -136.5t-165 -296t-61.5 -247.5zM559 1122q57 168 197 168 q45 0 135 -41t115 -41q51 0 84 72l47 -6q-10 -63 -57.5 -117.5t-108.5 -54.5q-55 0 -147.5 43t-121.5 43q-51 0 -94 -72z" />
<glyph unicode="&#xe4;" horiz-adv-x="1024" d="M186 215q0 98 47.5 216t122 217.5t179 167t206.5 67.5q113 0 156 -111l31 84h145l-90 -244q-41 -111 -88 -279.5t-47 -248.5q0 -49 26 -49q14 0 31 11t34 33.5t32.5 44t33 55.5t26.5 51.5t25.5 49t16.5 33.5l43 -18q-8 -16 -36.5 -76.5t-46 -90.5t-49.5 -73t-69.5 -62.5 t-83.5 -19.5q-55 0 -88.5 31t-33.5 86q0 6 18 117l-4 4q-133 -238 -305 -238q-100 0 -166 70t-66 172zM334 158q0 -53 25.5 -96.5t74.5 -43.5q154 0 301 312q119 258 119 399q0 43 -26.5 76t-69.5 33q-94 0 -197.5 -136.5t-165 -296t-61.5 -247.5zM585 1219q0 43 29 72.5 t72 29.5q41 0 70.5 -29.5t29.5 -70.5t-29.5 -71t-70.5 -30t-71 29t-30 70zM921 1219q0 43 29 72.5t72 29.5q41 0 70.5 -29.5t29.5 -70.5t-29.5 -71t-70.5 -30t-71 29t-30 70z" />
<glyph unicode="&#xe5;" horiz-adv-x="1024" d="M186 215q0 98 47.5 216t122 217.5t179 167t206.5 67.5q113 0 156 -111l31 84h145l-90 -244q-41 -111 -88 -279.5t-47 -248.5q0 -49 26 -49q14 0 31 11t34 33.5t32.5 44t33 55.5t26.5 51.5t25.5 49t16.5 33.5l43 -18q-8 -16 -36.5 -76.5t-46 -90.5t-49.5 -73t-69.5 -62.5 t-83.5 -19.5q-55 0 -88.5 31t-33.5 86q0 6 18 117l-4 4q-133 -238 -305 -238q-100 0 -166 70t-66 172zM334 158q0 -53 25.5 -96.5t74.5 -43.5q154 0 301 312q119 258 119 399q0 43 -26.5 76t-69.5 33q-94 0 -197.5 -136.5t-165 -296t-61.5 -247.5zM635 1176q0 88 62.5 150.5 t152.5 62.5q88 0 149.5 -62.5t61.5 -150.5q0 -86 -63.5 -146.5t-149.5 -60.5t-149.5 60.5t-63.5 146.5zM709 1176q0 -57 41 -98.5t98 -41.5t98 41t41 99q0 61 -39 103t-100 42q-59 0 -99 -43t-40 -102z" />
<glyph unicode="&#xe6;" horiz-adv-x="1228" d="M190 193q0 139 75 262t196 209q190 139 489 176l140 24q63 18 96 19q70 0 115 -37t45 -105q0 -76 -51.5 -145.5t-136.5 -120.5t-157.5 -84t-152.5 -59q-35 -121 -35 -195q0 -49 28.5 -84t73.5 -35q23 0 47.5 7.5t43 16.5t42 29.5t37 33t37 40t30.5 38t30.5 42t27.5 35.5 l39 -27q-182 -260 -356 -260q-84 0 -145.5 46.5t-79.5 125.5q-152 -172 -295 -172q-92 0 -137.5 62t-45.5 158zM338 160q0 -125 82 -125q51 0 124.5 60.5t114.5 117.5q20 182 104.5 324.5t231.5 269.5l-2 2q-268 -23 -448 -203q-88 -88 -147.5 -209.5t-59.5 -236.5zM864 385 q174 70 281 193q88 109 88 192q0 31 -21.5 49.5t-54.5 18.5q-63 0 -129.5 -93.5t-105 -187.5t-58.5 -172z" />
<glyph unicode="&#xe7;" horiz-adv-x="737" d="M186 246q0 129 70 276.5t192.5 254t253.5 106.5q59 0 107.5 -31t48.5 -86q0 -33 -22.5 -59.5t-55.5 -26.5q-29 0 -49 21.5t-20 50.5q0 18 11 37.5t11 23.5q0 25 -45 25q-94 0 -180 -141.5t-130 -296t-44 -236.5q0 -59 29.5 -102.5t85.5 -43.5q160 0 290 263l41 -25 q-133 -262 -329 -281l-23 -71q51 0 92 -29t41 -78q0 -66 -49 -101.5t-117 -35.5q-55 0 -110.5 22.5t-55.5 69.5q0 18 12.5 31.5t30.5 13.5q29 0 43 -39q8 -31 20.5 -42t41.5 -11q41 0 69.5 24.5t28.5 65.5q0 37 -34.5 51.5t-78.5 12.5l37 114q-102 10 -157.5 86t-55.5 187z " />
<glyph unicode="&#xe8;" horiz-adv-x="696" d="M158 207q0 131 71.5 287.5t198.5 272.5t262 116q63 0 105.5 -39t42.5 -103q0 -51 -20.5 -98t-65.5 -88t-83 -69.5t-104.5 -61.5t-98.5 -46t-93 -40l-33 -14q-35 -113 -35 -189q0 -51 25.5 -84t75.5 -33q23 0 44 4.5t42.5 16.5t37 20.5t38 31t32.5 30.5t33.5 36.5t28 35 t28.5 38.5l25 33l37 -26q-178 -264 -365 -265q-106 0 -167.5 64t-61.5 170zM356 379q139 61 254 164.5t115 226.5q0 68 -63 68q-53 0 -105.5 -52.5t-92.5 -132.5t-67 -149.5t-41 -124.5zM418 1303q0 27 19.5 49t45.5 22q14 0 30.5 -8t33 -23.5t28 -26.5t27.5 -31.5t21 -24.5 l163 -189h-57l-235 148q-2 2 -11.5 7t-13.5 8t-12 8t-12.5 9t-10.5 11.5t-9 12.5t-5 12.5t-2 15.5z" />
<glyph unicode="&#xe9;" horiz-adv-x="696" d="M158 207q0 131 71.5 287.5t198.5 272.5t262 116q63 0 105.5 -39t42.5 -103q0 -51 -20.5 -98t-65.5 -88t-83 -69.5t-104.5 -61.5t-98.5 -46t-93 -40l-33 -14q-35 -113 -35 -189q0 -51 25.5 -84t75.5 -33q23 0 44 4.5t42.5 16.5t37 20.5t38 31t32.5 30.5t33.5 36.5t28 35 t28.5 38.5l25 33l37 -26q-178 -264 -365 -265q-106 0 -167.5 64t-61.5 170zM356 379q139 61 254 164.5t115 226.5q0 68 -63 68q-53 0 -105.5 -52.5t-92.5 -132.5t-67 -149.5t-41 -124.5zM481 1069l219 201q90 90 138 90q25 0 44 -19.5t19 -44.5q0 -12 -4 -23t-13 -21.5 t-17.5 -18.5t-23 -16.5t-22.5 -12.5l-24 -12l-21 -10l-227 -113h-68z" />
<glyph unicode="&#xea;" horiz-adv-x="696" d="M158 207q0 131 71.5 287.5t198.5 272.5t262 116q63 0 105.5 -39t42.5 -103q0 -51 -20.5 -98t-65.5 -88t-83 -69.5t-104.5 -61.5t-98.5 -46t-93 -40l-33 -14q-35 -113 -35 -189q0 -51 25.5 -84t75.5 -33q23 0 44 4.5t42.5 16.5t37 20.5t38 31t32.5 30.5t33.5 36.5t28 35 t28.5 38.5l25 33l37 -26q-178 -264 -365 -265q-106 0 -167.5 64t-61.5 170zM356 379q139 61 254 164.5t115 226.5q0 68 -63 68q-53 0 -105.5 -52.5t-92.5 -132.5t-67 -149.5t-41 -124.5zM385 1087l295 291h102l160 -291h-51l-170 168l-260 -168h-76z" />
<glyph unicode="&#xeb;" horiz-adv-x="696" d="M158 207q0 131 71.5 287.5t198.5 272.5t262 116q63 0 105.5 -39t42.5 -103q0 -51 -20.5 -98t-65.5 -88t-83 -69.5t-104.5 -61.5t-98.5 -46t-93 -40l-33 -14q-35 -113 -35 -189q0 -51 25.5 -84t75.5 -33q23 0 44 4.5t42.5 16.5t37 20.5t38 31t32.5 30.5t33.5 36.5t28 35 t28.5 38.5l25 33l37 -26q-178 -264 -365 -265q-106 0 -167.5 64t-61.5 170zM356 379q139 61 254 164.5t115 226.5q0 68 -63 68q-53 0 -105.5 -52.5t-92.5 -132.5t-67 -149.5t-41 -124.5zM422 1219q0 43 29 72.5t72 29.5q41 0 70.5 -29.5t29.5 -70.5t-29.5 -71t-70.5 -30 t-71 29t-30 70zM758 1219q0 43 29 72.5t72 29.5q41 0 70.5 -29.5t29.5 -70.5t-29.5 -71t-70.5 -30t-71 29t-30 70z" />
<glyph unicode="&#xec;" horiz-adv-x="573" d="M184 621q2 4 17.5 30.5t21.5 35.5t21.5 33.5t25 36t25.5 32t27.5 30.5t30 24.5t33.5 21.5t34.5 12.5t38.5 5.5q55 0 91 -42t36 -98q0 -29 -6.5 -59.5t-18.5 -68t-21.5 -61.5t-26.5 -67t-24 -57l-65 -166q-61 -174 -62 -194q0 -12 9.5 -23.5t21.5 -11.5q51 0 118 86 t101 160l41 -21q-137 -287 -291 -287q-61 0 -97 43t-36 105q0 31 10.5 71.5t20.5 66.5t32.5 76t26.5 62l58 138q76 203 76 245q0 41 -35 41q-41 0 -99.5 -76.5t-93.5 -146.5zM315 1303q0 27 19.5 49t46.5 22q14 0 30.5 -8t33 -23.5t27.5 -26.5t27.5 -31.5t20.5 -24.5 l164 -189h-57l-236 148q-2 2 -11 7t-13.5 8t-12.5 8t-12 9t-10 11.5t-9.5 12.5t-5.5 12.5t-2 15.5z" />
<glyph unicode="&#xed;" horiz-adv-x="573" d="M184 621q2 4 17.5 30.5t21.5 35.5t21.5 33.5t25 36t25.5 32t27.5 30.5t30 24.5t33.5 21.5t34.5 12.5t38.5 5.5q55 0 91 -42t36 -98q0 -29 -6.5 -59.5t-18.5 -68t-21.5 -61.5t-26.5 -67t-24 -57l-65 -166q-61 -174 -62 -194q0 -12 9.5 -23.5t21.5 -11.5q51 0 118 86 t101 160l41 -21q-137 -287 -291 -287q-61 0 -97 43t-36 105q0 31 10.5 71.5t20.5 66.5t32.5 76t26.5 62l58 138q76 203 76 245q0 41 -35 41q-41 0 -99.5 -76.5t-93.5 -146.5zM420 1069l219 201q90 90 138 90q25 0 44 -19.5t19 -44.5q0 -12 -4 -23t-13 -21.5t-17.5 -18.5 t-23 -16.5t-22.5 -12.5l-24 -12l-21 -10l-227 -113h-68z" />
<glyph unicode="&#xee;" horiz-adv-x="573" d="M184 621q2 4 17.5 30.5t21.5 35.5t21.5 33.5t25 36t25.5 32t27.5 30.5t30 24.5t33.5 21.5t34.5 12.5t38.5 5.5q55 0 91 -42t36 -98q0 -29 -6.5 -59.5t-18.5 -68t-21.5 -61.5t-26.5 -67t-24 -57l-65 -166q-61 -174 -62 -194q0 -12 9.5 -23.5t21.5 -11.5q51 0 118 86 t101 160l41 -21q-137 -287 -291 -287q-61 0 -97 43t-36 105q0 31 10.5 71.5t20.5 66.5t32.5 76t26.5 62l58 138q76 203 76 245q0 41 -35 41q-41 0 -99.5 -76.5t-93.5 -146.5zM242 1087l295 291h102l160 -291h-51l-170 168l-261 -168h-75z" />
<glyph unicode="&#xef;" horiz-adv-x="573" d="M184 621q2 4 17.5 30.5t21.5 35.5t21.5 33.5t25 36t25.5 32t27.5 30.5t30 24.5t33.5 21.5t34.5 12.5t38.5 5.5q55 0 91 -42t36 -98q0 -29 -6.5 -59.5t-18.5 -68t-21.5 -61.5t-26.5 -67t-24 -57l-65 -166q-61 -174 -62 -194q0 -12 9.5 -23.5t21.5 -11.5q51 0 118 86 t101 160l41 -21q-137 -287 -291 -287q-61 0 -97 43t-36 105q0 31 10.5 71.5t20.5 66.5t32.5 76t26.5 62l58 138q76 203 76 245q0 41 -35 41q-41 0 -99.5 -76.5t-93.5 -146.5zM299 1219q0 43 29 72.5t72 29.5q41 0 70.5 -29.5t29.5 -70.5t-29.5 -71t-70.5 -30t-71 29t-30 70z M635 1219q0 43 29 72.5t72 29.5q41 0 70.5 -29.5t29.5 -70.5t-29.5 -71t-70.5 -30t-71 29t-30 70z" />
<glyph unicode="&#xf0;" horiz-adv-x="860" d="M186 272q0 123 58.5 262.5t171 244t243.5 104.5q78 0 150 -80q-4 197 -86 377l-215 -111l-41 59l225 113q-72 123 -166 203l43 35q121 -92 201 -199l219 111l37 -56l-215 -110q147 -225 147 -514q0 -168 -53 -332t-167.5 -285t-266.5 -121q-131 0 -208 83t-77 216z M334 172q0 -154 139 -154q80 0 144.5 79t101.5 191.5t56.5 219t19.5 178.5q0 61 -33 106.5t-92 45.5q-76 0 -142.5 -80t-106.5 -191.5t-63.5 -219t-23.5 -175.5z" />
<glyph unicode="&#xf1;" horiz-adv-x="1146" d="M176 563q2 4 16.5 37t19.5 43t19.5 41t23.5 44t25.5 39t30 38t31.5 30.5t36.5 26.5t41 14.5t45.5 6.5q59 0 92 -40t33 -102q0 -31 -17 -151l-6 -37l4 -4q172 334 365 334q68 0 114 -49.5t46 -116.5q0 -119 -70 -301l-37 -99q-70 -199 -69 -221q0 -20 11 -40.5t32 -20.5 q53 0 112.5 88t95.5 170l43 -21q-141 -299 -292 -299q-63 0 -99.5 41t-36.5 105q0 25 5.5 53.5t14.5 63t17 58t21.5 62.5t17.5 52l37 100q74 190 74 244q0 29 -19.5 49t-50.5 20q-72 0 -147.5 -85t-128.5 -179q-100 -176 -197 -494l-18 -63h-154l45 129q156 473 156 627 q0 66 -39 65q-23 0 -48.5 -20.5t-50 -58t-42 -68.5t-38 -74t-24.5 -51zM580 1122q57 168 196 168q45 0 135.5 -41t114.5 -41q51 0 84 72l47 -6q-10 -63 -57 -117.5t-109 -54.5q-55 0 -147 43t-121 43q-51 0 -94 -72z" />
<glyph unicode="&#xf2;" horiz-adv-x="860" d="M186 272q0 123 58.5 262.5t171 244t243.5 104.5q135 0 209 -96.5t74 -235.5q0 -123 -60.5 -255t-172 -227.5t-238.5 -95.5q-131 0 -208 83t-77 216zM334 172q0 -154 139 -154q80 0 144.5 79t101.5 191.5t56.5 219t19.5 178.5q0 61 -33 106.5t-92 45.5q-76 0 -142.5 -80 t-106.5 -191.5t-63.5 -219t-23.5 -175.5zM500 1303q0 27 19.5 49t45.5 22q14 0 30.5 -8t33 -23.5t28 -26.5t27.5 -31.5t21 -24.5l163 -189h-57l-236 148q-2 2 -11 7t-13 8t-12.5 8t-12.5 9t-10 11.5t-9 12.5t-5 12.5t-2 15.5z" />
<glyph unicode="&#xf3;" horiz-adv-x="860" d="M186 272q0 123 58.5 262.5t171 244t243.5 104.5q135 0 209 -96.5t74 -235.5q0 -123 -60.5 -255t-172 -227.5t-238.5 -95.5q-131 0 -208 83t-77 216zM334 172q0 -154 139 -154q80 0 144.5 79t101.5 191.5t56.5 219t19.5 178.5q0 61 -33 106.5t-92 45.5q-76 0 -142.5 -80 t-106.5 -191.5t-63.5 -219t-23.5 -175.5zM563 1069l219 201q90 90 138 90q25 0 44 -19.5t19 -44.5q0 -12 -4 -23t-13 -21.5t-17.5 -18.5t-23 -16.5t-22.5 -12.5l-24 -12l-21 -10l-227 -113h-68z" />
<glyph unicode="&#xf4;" horiz-adv-x="860" d="M186 272q0 123 58.5 262.5t171 244t243.5 104.5q135 0 209 -96.5t74 -235.5q0 -123 -60.5 -255t-172 -227.5t-238.5 -95.5q-131 0 -208 83t-77 216zM334 172q0 -154 139 -154q80 0 144.5 79t101.5 191.5t56.5 219t19.5 178.5q0 61 -33 106.5t-92 45.5q-76 0 -142.5 -80 t-106.5 -191.5t-63.5 -219t-23.5 -175.5zM467 1087l295 291h102l160 -291h-51l-170 168l-260 -168h-76z" />
<glyph unicode="&#xf5;" horiz-adv-x="860" d="M186 272q0 123 58.5 262.5t171 244t243.5 104.5q135 0 209 -96.5t74 -235.5q0 -123 -60.5 -255t-172 -227.5t-238.5 -95.5q-131 0 -208 83t-77 216zM334 172q0 -154 139 -154q80 0 144.5 79t101.5 191.5t56.5 219t19.5 178.5q0 61 -33 106.5t-92 45.5q-76 0 -142.5 -80 t-106.5 -191.5t-63.5 -219t-23.5 -175.5zM477 1122q57 168 196 168q45 0 135.5 -41t114.5 -41q51 0 84 72l47 -6q-10 -63 -57 -117.5t-109 -54.5q-55 0 -147 43t-121 43q-51 0 -94 -72z" />
<glyph unicode="&#xf6;" horiz-adv-x="860" d="M186 272q0 123 58.5 262.5t171 244t243.5 104.5q135 0 209 -96.5t74 -235.5q0 -123 -60.5 -255t-172 -227.5t-238.5 -95.5q-131 0 -208 83t-77 216zM334 172q0 -154 139 -154q80 0 144.5 79t101.5 191.5t56.5 219t19.5 178.5q0 61 -33 106.5t-92 45.5q-76 0 -142.5 -80 t-106.5 -191.5t-63.5 -219t-23.5 -175.5zM503 1219q0 43 29 72.5t72 29.5q41 0 70.5 -29.5t29.5 -70.5t-29.5 -71t-70.5 -30t-71 29t-30 70zM839 1219q0 43 29 72.5t72 29.5q41 0 70.5 -29.5t29.5 -70.5t-29.5 -71t-70.5 -30t-71 29t-30 70z" />
<glyph unicode="&#xf7;" d="M209 399v109h907v-109h-907zM561 98q0 43 28.5 73t72.5 30q41 0 70.5 -30t29.5 -71t-30 -70.5t-70.5 -29.5t-70.5 28.5t-30 69.5zM561 805q0 43 28.5 72.5t72.5 29.5q41 0 70.5 -29.5t29.5 -70.5t-30 -70.5t-70.5 -29.5t-70.5 28.5t-30 69.5z" />
<glyph unicode="&#xf8;" horiz-adv-x="860" d="M186 -248l129 260q-61 37 -91.5 116t-30.5 161q0 123 59 259t169.5 235.5t235.5 99.5q39 0 86 -11l107 220h76l-119 -236q129 -96 129 -301q0 -123 -60.5 -257t-172 -229.5t-238.5 -95.5q-43 0 -86 13l-117 -234h-76zM340 195q0 -47 16 -97l361 731q-16 8 -53 9 q-74 0 -138.5 -77t-103.5 -184.5t-60.5 -210.5t-21.5 -171zM406 37q33 -18 57 -19q80 0 146.5 77t103.5 187.5t56 214t19 177.5q0 63 -20 100z" />
<glyph unicode="&#xf9;" horiz-adv-x="1146" d="M180 567q152 315 312 316q57 0 90.5 -46t33.5 -106q0 -82 -49 -237l-86 -271q-29 -86 -28 -121q0 -31 20.5 -49t52.5 -18q61 0 130 67.5t110 137t72 139.5l166 493h151l-78 -258q-6 -20 -27.5 -94t-31.5 -113.5t-25.5 -102t-22.5 -114t-7 -96.5q0 -59 34 -59 q45 0 105.5 96t79.5 162l45 -17q-111 -303 -266 -303q-70 0 -107 44t-31 112q2 20 5 62t6 63l-5 4q-37 -61 -63.5 -98t-70.5 -87t-95 -75t-108 -25q-74 0 -123.5 48.5t-49.5 121.5q0 66 39 191l37 121q4 16 26.5 83.5t33 110.5t14.5 84q8 88 -23 88q-49 0 -114.5 -94 t-108.5 -180zM561 1303q0 27 19.5 49t46.5 22q14 0 30.5 -8t33 -23.5t27.5 -26.5t27.5 -31.5t20.5 -24.5l164 -189h-58l-235 148q-2 2 -11.5 7t-13.5 8t-12 8t-12 9t-10.5 11.5t-9.5 12.5t-5 12.5t-2 15.5z" />
<glyph unicode="&#xfa;" horiz-adv-x="1146" d="M180 567q152 315 312 316q57 0 90.5 -46t33.5 -106q0 -82 -49 -237l-86 -271q-29 -86 -28 -121q0 -31 20.5 -49t52.5 -18q61 0 130 67.5t110 137t72 139.5l166 493h151l-78 -258q-6 -20 -27.5 -94t-31.5 -113.5t-25.5 -102t-22.5 -114t-7 -96.5q0 -59 34 -59 q45 0 105.5 96t79.5 162l45 -17q-111 -303 -266 -303q-70 0 -107 44q-32 38 -32 93q0 9 1 19q2 20 5 62t6 63l-5 4q-37 -61 -63.5 -98t-70.5 -87t-95 -75t-108 -25q-74 0 -123.5 48.5t-49.5 121.5q0 66 39 191l37 121q4 16 26.5 83.5t33 110.5t14.5 84q2 19 2 33 q0 55 -25 55q-49 0 -114.5 -94t-108.5 -180zM706 1069l219 201q90 90 138 90q25 0 44 -19.5t19 -44.5q0 -12 -4 -23t-13 -21.5t-17.5 -18.5t-23 -16.5t-22.5 -12.5l-24 -12l-21 -10l-227 -113h-68z" />
<glyph unicode="&#xfb;" horiz-adv-x="1146" d="M180 567q152 315 312 316q57 0 90.5 -46t33.5 -106q0 -82 -49 -237l-86 -271q-29 -86 -28 -121q0 -31 20.5 -49t52.5 -18q61 0 130 67.5t110 137t72 139.5l166 493h151l-78 -258q-6 -20 -27.5 -94t-31.5 -113.5t-25.5 -102t-22.5 -114t-7 -96.5q0 -59 34 -59 q45 0 105.5 96t79.5 162l45 -17q-111 -303 -266 -303q-70 0 -107 44t-31 112q2 20 5 62t6 63l-5 4q-37 -61 -63.5 -98t-70.5 -87t-95 -75t-108 -25q-74 0 -123.5 48.5t-49.5 121.5q0 66 39 191l37 121q4 16 26.5 83.5t33 110.5t14.5 84q8 88 -23 88q-49 0 -114.5 -94 t-108.5 -180zM528 1087l295 291h103l159 -291h-51l-170 168l-260 -168h-76z" />
<glyph unicode="&#xfc;" horiz-adv-x="1146" d="M180 567q152 315 312 316q57 0 90.5 -46t33.5 -106q0 -82 -49 -237l-86 -271q-29 -86 -28 -121q0 -31 20.5 -49t52.5 -18q61 0 130 67.5t110 137t72 139.5l166 493h151l-78 -258q-6 -20 -27.5 -94t-31.5 -113.5t-25.5 -102t-22.5 -114t-7 -96.5q0 -59 34 -59 q45 0 105.5 96t79.5 162l45 -17q-111 -303 -266 -303q-70 0 -107 44q-32 38 -32 93q0 9 1 19q2 20 5 62t6 63l-5 4q-37 -61 -63.5 -98t-70.5 -87t-95 -75t-108 -25q-74 0 -123.5 48.5t-49.5 121.5q0 66 39 191l37 121q4 16 26.5 83.5t33 110.5t14.5 84q2 19 2 33 q0 55 -25 55q-49 0 -114.5 -94t-108.5 -180zM596 1219q0 43 29 72.5t72 29.5q41 0 70.5 -29.5t29.5 -70.5t-29.5 -71t-70.5 -30t-71 29t-30 70zM932 1219q0 43 29 72.5t72 29.5q41 0 70.5 -29.5t29.5 -70.5t-29.5 -71t-70.5 -30t-71 29t-30 70z" />
<glyph unicode="&#xfd;" horiz-adv-x="778" d="M-25 -496q0 76 108 76h11q18 -1 35 -1q58 0 93 11q46 14 104 64q139 145 139 330q0 100 -20.5 250.5t-49.5 248.5q-16 68 -58 172.5t-75 104.5q-31 0 -45 -65.5t-14 -112.5q2 -12 2 -39t2 -41h-45q-2 14 -2 45t-2 45q0 55 13 116.5t51 118t93 56.5q49 0 96.5 -64.5 t72 -127t40.5 -120.5q61 -205 72 -512h4q152 295 152 508q0 55 -15.5 98.5t-33 64t-33 44t-15.5 45.5q0 27 19.5 45.5t46.5 18.5q33 0 53.5 -20.5t28.5 -59.5t9 -61.5t1 -61.5q0 -182 -64.5 -382t-166.5 -374q-41 -70 -94.5 -142.5t-125 -152.5t-153.5 -131t-152 -51 q-33 0 -57.5 16t-24.5 41zM522 1069l219 201q90 90 138 90q25 0 44 -19.5t19 -44.5q0 -12 -4 -23t-13 -21.5t-17.5 -18.5t-23 -16.5t-22.5 -12.5l-24 -12l-21 -10l-227 -113h-68z" />
<glyph unicode="&#xfe;" horiz-adv-x="983" d="M-41 -561l12 45q80 4 107 31q23 27 67 186l400 1434q25 98 24 104q0 23 -12 36t-38.5 17t-37 5t-39.5 1l13 45l301 21l-199 -680l4 -4q43 66 72 101.5t84 68.5t121 33q106 0 166.5 -76t60.5 -184q0 -131 -65.5 -280.5t-188.5 -259.5t-260 -110q-49 0 -95 31t-61 78h-4 l-76 -277q-61 -225 -61 -254q0 -14 5 -25t16.5 -18.5t20.5 -11.5t26.5 -6t25.5 -3t27 -3h18l-14 -45q-37 0 -109.5 4t-109.5 4q-33 0 -100.5 -4t-100.5 -4zM436 158q0 -51 28 -95.5t75 -44.5q94 0 187 137.5t142.5 295t49.5 249.5q0 51 -29 94.5t-78 43.5q-72 0 -144.5 -82 t-120.5 -194.5t-79 -224t-31 -179.5z" />
<glyph unicode="&#xff;" horiz-adv-x="778" d="M-25 -496q0 80 119 76q82 -4 128 10.5t104 63.5q139 145 139 330q0 100 -20.5 250.5t-49.5 248.5q-16 68 -58 172.5t-75 104.5q-31 0 -45 -65.5t-14 -112.5q2 -12 2 -39t2 -41h-45q-2 14 -2 45t-2 45q0 55 13 116.5t51 118t93 56.5q49 0 96.5 -64.5t72 -127t40.5 -120.5 q61 -205 72 -512h4q152 295 152 508q0 55 -15.5 98.5t-33 64t-33 44t-15.5 45.5q0 27 19.5 45.5t46.5 18.5q33 0 53.5 -20.5t28.5 -59.5t9 -61.5t1 -61.5q0 -182 -64.5 -382t-166.5 -374q-41 -70 -94.5 -142.5t-125 -152.5t-153.5 -131t-152 -51q-33 0 -57.5 16t-24.5 41z M299 1219q0 43 28.5 72.5t71.5 29.5q41 0 71 -29.5t30 -70.5t-30 -71t-71 -30t-70.5 29t-29.5 70zM635 1219q0 43 28.5 72.5t71.5 29.5q41 0 71 -29.5t30 -70.5t-30 -71t-71 -30t-70.5 29t-29.5 70z" />
<glyph unicode="&#x131;" horiz-adv-x="573" d="M184 621q2 4 17.5 30.5t21.5 35.5t21.5 33.5t25 36t25.5 32t27.5 30.5t30 24.5t33.5 21.5t34.5 12.5t38.5 5.5q55 0 91 -42t36 -98q0 -29 -6.5 -59.5t-18.5 -68t-21.5 -61.5t-26.5 -67t-24 -57l-65 -166q-61 -174 -62 -194q0 -12 9.5 -23.5t21.5 -11.5q51 0 118 86 t101 160l41 -21q-137 -287 -291 -287q-61 0 -97 43t-36 105q0 31 10.5 71.5t20.5 66.5t32.5 76t26.5 62l58 138q76 203 76 245q0 41 -35 41q-41 0 -99.5 -76.5t-93.5 -146.5z" />
<glyph unicode="&#x152;" horiz-adv-x="2048" d="M258 475q0 362 231 619q127 141 278 199.5t353 58.5q57 0 172 -4.5t172 -4.5q117 0 349.5 4.5t349.5 4.5l30 -318h-43q-63 170 -140 221.5t-265 51.5h-148l-143 -564h158q51 0 88 14.5t65.5 50.5t43 63.5t40.5 86.5h39l-100 -514h-41q0 59 1 115.5t-30.5 97.5t-99.5 41 h-178l-105 -391q-31 -123 -30 -149q0 -18 6 -33.5t20.5 -27t27.5 -19.5t36.5 -14.5t38 -9.5t42 -6t38 -4t37 -2t28.5 -1q184 -10 272 55.5t187 251.5h47l-94 -352q-150 2 -428.5 5t-401.5 3q-70 -2 -180.5 -5t-153.5 -3q-252 -4 -410.5 114.5t-158.5 364.5zM463 434 q0 -184 98 -288.5t281 -104.5q80 0 134 22.5t87 69.5t51.5 99.5t40.5 129.5q4 23 8 33l127 479q53 203 53 279q0 90 -58 122t-159 32q-156 0 -286.5 -83t-209.5 -213t-123 -281t-44 -296z" />
<glyph unicode="&#x153;" horiz-adv-x="1269" d="M186 293q0 129 61.5 264t176.5 230.5t248 95.5q156 0 243 -150q174 150 314 150q66 0 111.5 -37t45.5 -103q0 -74 -52 -144.5t-135 -122.5t-158.5 -88t-151.5 -60q-31 -96 -31 -176q0 -53 25.5 -93.5t74.5 -40.5q31 0 64 14.5t56.5 29t55 49t45 51t44 57.5t34.5 47 l39 -28q-59 -82 -98 -127t-111.5 -91.5t-150.5 -46.5q-84 0 -141.5 44t-75.5 124q-109 -168 -260 -168q-129 0 -201 93.5t-72 226.5zM334 199q0 -76 31.5 -128.5t103.5 -52.5q80 0 148.5 77t107.5 187.5t60.5 214t21.5 173.5q0 72 -33 120t-102 48q-102 0 -184 -128 t-118 -270.5t-36 -240.5zM907 383q121 39 244 157.5t123 231.5q0 66 -76 66q-57 0 -109.5 -50.5t-88 -131.5t-56.5 -144t-37 -129z" />
<glyph unicode="&#x178;" horiz-adv-x="1187" d="M301 -4l10 45q68 -2 107 6t64.5 41t34.5 61.5t30 100.5l96 362l-149 506q-29 111 -52 142q-31 43 -135 47l12 45q41 0 123 -4.5t123 -4.5q43 0 129 4.5t129 4.5l-12 -45q-2 0 -23.5 -1t-28.5 -1t-26.5 -3.5t-28 -7.5t-19.5 -11t-16 -19.5t-5 -26.5q0 -27 8 -57l149 -518 q4 4 135 153.5t214 261t83 156.5q0 12 -3 22.5t-10 17.5t-14 12t-19.5 9t-19.5 6.5t-22.5 3.5t-22.5 2t-23 1h-17l12 45q33 0 97.5 -4.5t97.5 -4.5q35 0 103.5 4.5t103.5 4.5l-13 -45q-20 2 -41.5 -5.5t-35 -14.5t-34 -28.5t-27.5 -28.5t-28.5 -36t-23.5 -31l-479 -581 l-99 -369q-20 -74 -20 -100q0 -16 6 -29.5t17.5 -21t25.5 -12.5t30.5 -6t34 -2t33.5 -1h33l-10 -45q-53 0 -157.5 4t-156.5 4q-45 0 -135 -4t-135 -4zM668 1686q0 43 28.5 72.5t71.5 29.5q41 0 70.5 -29.5t29.5 -70.5t-29.5 -71t-70.5 -30t-70.5 29t-29.5 70zM1004 1686 q0 43 28.5 72.5t71.5 29.5q41 0 70.5 -29.5t29.5 -70.5t-29.5 -71t-70.5 -30t-70.5 29t-29.5 70z" />
<glyph unicode="&#x192;" d="M84 -250q0 39 24.5 66.5t63.5 27.5q37 0 57.5 -22.5t27.5 -50t23.5 -50t45.5 -22.5q84 0 141 156q45 119 84 374l102 660h-192l22 65h181q66 244 127 342q129 207 354 207q57 0 104 -28.5t47 -81.5q0 -37 -22.5 -63.5t-59.5 -26.5q-33 0 -57 21.5t-35.5 48t-29 48 t-37.5 21.5q-43 0 -79 -38t-57.5 -104.5t-35 -124t-25.5 -131t-16 -90.5h223l-23 -65h-211l-83 -469q-14 -78 -24.5 -129t-33 -141.5t-46 -151.5t-62.5 -135t-84 -119t-107.5 -75.5t-136.5 -30.5q-66 0 -118 26.5t-52 85.5z" />
<glyph unicode="&#x2c6;" horiz-adv-x="819" d="M446 1087l295 291h103l160 -291h-52l-170 168l-260 -168h-76z" />
<glyph unicode="&#x2da;" horiz-adv-x="696" d="M471 1176q0 88 62.5 150.5t152.5 62.5q88 0 149.5 -62.5t61.5 -150.5q0 -86 -63.5 -146.5t-149.5 -60.5t-149.5 60.5t-63.5 146.5zM545 1176q0 -57 41 -98.5t98 -41.5t98 41t41 99q0 61 -39 103t-100 42q-59 0 -99 -43t-40 -102z" />
<glyph unicode="&#x2dc;" horiz-adv-x="819" d="M457 1122q57 168 196 168q45 0 135.5 -41t114.5 -41q51 0 84 72l47 -6q-10 -63 -57 -117.5t-109 -54.5q-55 0 -147 43t-121 43q-51 0 -94 -72z" />
<glyph unicode="&#x2000;" horiz-adv-x="1024" />
<glyph unicode="&#x2001;" horiz-adv-x="2048" />
<glyph unicode="&#x2002;" horiz-adv-x="1024" />
<glyph unicode="&#x2003;" horiz-adv-x="2048" />
<glyph unicode="&#x2004;" horiz-adv-x="681" />
<glyph unicode="&#x2005;" horiz-adv-x="512" />
<glyph unicode="&#x2006;" horiz-adv-x="339" />
<glyph unicode="&#x2007;" />
<glyph unicode="&#x2008;" horiz-adv-x="573" />
<glyph unicode="&#x2009;" horiz-adv-x="204" />
<glyph unicode="&#x200a;" horiz-adv-x="20" />
<glyph unicode="&#x200b;" horiz-adv-x="0" />
<glyph unicode="&#x200c;" horiz-adv-x="0" />
<glyph unicode="&#x200d;" horiz-adv-x="0" />
<glyph unicode="&#x200e;" horiz-adv-x="681" />
<glyph unicode="&#x200f;" horiz-adv-x="681" />
<glyph unicode="&#x2010;" horiz-adv-x="819" d="M205 512v205h409v-205h-409z" />
<glyph unicode="&#x2011;" horiz-adv-x="819" d="M205 512v205h409v-205h-409z" />
<glyph unicode="&#x2012;" d="M205 512v205h655v-205h-655z" />
<glyph unicode="&#x2013;" horiz-adv-x="1024" d="M117 393l16 109h1024l-16 -109h-1024z" />
<glyph unicode="&#x2014;" horiz-adv-x="2048" d="M117 393l16 109h2048l-16 -109h-2048z" />
<glyph unicode="&#x2015;" horiz-adv-x="4096" d="M205 512v205h3686v-205h-3686z" />
<glyph unicode="&#x2016;" horiz-adv-x="1556" d="M1304 -512v2048h109v-2048h-109zM526 -512v2048h109v-2048h-109z" />
<glyph unicode="&#x2018;" horiz-adv-x="491" d="M420 1055q0 106 76.5 184t199.5 145l21 -45q-61 -25 -134 -101.5t-73 -129.5q0 -10 4 -23q29 18 53 19q41 0 71 -30t30 -73q0 -47 -33 -77.5t-80 -30.5q-61 0 -98 49.5t-37 112.5z" />
<glyph unicode="&#x2019;" horiz-adv-x="491" d="M430 938q61 25 134 101.5t73 129.5q0 10 -4 23q-29 -18 -53 -18q-41 0 -71 29.5t-30 72.5q0 47 33 77.5t80 30.5q61 0 98 -49t37 -112q0 -106 -77 -184t-199 -146z" />
<glyph unicode="&#x201a;" horiz-adv-x="491" d="M94 -262q61 25 134 101.5t73 129.5q0 10 -4 23l-25 -12q-12 -6 -28 -7q-41 0 -71 30t-30 73q0 47 33 77.5t80 30.5q61 0 98 -49t37 -112q0 -106 -76.5 -184.5t-199.5 -145.5z" />
<glyph unicode="&#x201c;" horiz-adv-x="860" d="M420 1055q0 106 76.5 184t199.5 145l21 -45q-61 -25 -134 -101.5t-73 -129.5q0 -10 4 -23q29 18 53 19q41 0 71 -30t30 -73q0 -47 -33 -77.5t-80 -30.5q-61 0 -98 49.5t-37 112.5zM756 1055q0 106 76.5 184t199.5 145l21 -45q-61 -25 -134 -101.5t-73 -129.5q0 -10 4 -23 q29 18 53 19q41 0 71 -30t30 -73q0 -47 -33 -77.5t-80 -30.5q-61 0 -98 49.5t-37 112.5z" />
<glyph unicode="&#x201d;" horiz-adv-x="860" d="M430 938q61 25 134 101.5t73 129.5q0 10 -4 23q-29 -18 -53 -18q-41 0 -71 29.5t-30 72.5q0 47 33 77.5t80 30.5q61 0 98 -49t37 -112q0 -106 -77 -184t-199 -146zM766 938q61 25 134 101.5t73 129.5q0 10 -4 23q-29 -18 -54 -18q-41 0 -70.5 29.5t-29.5 72.5 q0 47 33 77.5t80 30.5q61 0 98 -49t37 -112q0 -106 -77 -184t-200 -146z" />
<glyph unicode="&#x201e;" horiz-adv-x="860" d="M94 -262q61 25 134 101.5t73 129.5q0 10 -4 23l-25 -12q-12 -6 -28 -7q-41 0 -71 30t-30 73q0 47 33 77.5t80 30.5q61 0 98 -49t37 -112q0 -106 -76.5 -184.5t-199.5 -145.5zM430 -262q61 25 134 101.5t73 129.5q0 10 -4 23l-25 -12q-12 -6 -28 -7q-41 0 -71 30t-30 73 q0 47 33 77.5t80 30.5q61 0 98 -49t37 -112q0 -106 -77 -184.5t-199 -145.5z" />
<glyph unicode="&#x2020;" horiz-adv-x="1024" d="M381 913q0 39 25.5 63.5t62.5 24.5q25 0 76 -20q115 -47 200 -45q25 94 25 170q0 25 -8 74t-8 75q0 115 94 115q39 0 63.5 -25.5t24.5 -64.5q0 -47 -53 -125q-59 -92 -82 -219q86 -2 200 43q55 18 72 18q39 0 63.5 -25.5t24.5 -64.5q0 -37 -26.5 -61.5t-63.5 -24.5 q-35 0 -76 19q-119 51 -209 51q-20 -92 -20 -162q0 -90 33 -182q-53 -88 -98.5 -207t-64 -187.5t-56 -233.5t-45.5 -202h-52q8 39 36 169t43.5 206t29.5 184.5t14 188.5l-6 104q98 129 131 322q-18 0 -25.5 1t-23.5 -2t-21.5 -4t-21.5 -6.5t-22.5 -7.5t-22.5 -9t-25 -9 q-72 -29 -96 -29q-39 0 -65.5 24.5t-26.5 63.5z" />
<glyph unicode="&#x2021;" horiz-adv-x="1024" d="M195 176q0 33 24.5 58.5t56.5 25.5q27 0 103 -29q86 -35 180 -36q31 123 31 192q0 76 -31 154q117 125 150 346l-37 2q-47 0 -121 -31q-74 -29 -105 -29q-39 0 -63.5 22.5t-24.5 59.5q0 35 24 59.5t58 24.5q37 0 111 -28q86 -33 172 -31q25 119 25 149q0 29 -9.5 84.5 t-9.5 83.5q0 45 24.5 81t67.5 36q39 0 62.5 -24.5t23.5 -63.5q0 -45 -53 -131q-59 -100 -78 -215q70 -2 160 29q82 29 108 28q35 0 58.5 -25.5t23.5 -62.5q0 -33 -24.5 -58.5t-57.5 -25.5q-27 0 -102 29q-86 35 -180 37q-29 -90 -29 -178q0 -90 33 -168q-61 -61 -93 -143.5 t-61 -202.5l37 -2q47 0 121 30q74 29 104 29q39 0 64 -22.5t25 -59.5q0 -35 -24 -59.5t-58 -24.5q-37 0 -111 29q-86 33 -172 30q-25 -119 -25 -149q0 -29 9.5 -84t9.5 -84q0 -45 -24.5 -81t-67.5 -36q-39 0 -62.5 24.5t-23.5 63.5q0 45 53 131q59 100 78 215 q-70 2 -160 -28q-82 -29 -109 -29q-35 0 -58 25.5t-23 62.5z" />
<glyph unicode="&#x2022;" d="M373 672q0 147 99 246.5t247 99.5q141 0 233 -103.5t92 -246.5q0 -127 -97 -224.5t-228 -97.5q-141 0 -243.5 93.5t-102.5 232.5z" />
<glyph unicode="&#x2024;" horiz-adv-x="573" d="M205 84q0 49 32.5 81t81.5 32q47 0 78 -34t31 -81q0 -43 -33 -76t-76 -33q-47 0 -80.5 32t-33.5 79z" />
<glyph unicode="&#x2025;" horiz-adv-x="1146" d="M778 84q0 49 32.5 81t81.5 32q47 0 78 -34t31 -81q0 -43 -33 -76t-76 -33q-47 0 -80.5 32t-33.5 79zM205 84q0 49 32.5 81t81.5 32q47 0 78 -34t31 -81q0 -43 -33 -76t-76 -33q-47 0 -80.5 32t-33.5 79z" />
<glyph unicode="&#x2026;" horiz-adv-x="2048" d="M229 84q0 49 33 81t82 32q47 0 78 -34t31 -81q0 -43 -33 -76t-76 -33q-47 0 -81 32t-34 79zM911 84q0 49 33 81t82 32q47 0 78 -34t31 -81q0 -43 -33 -76t-76 -33q-47 0 -81 32t-34 79zM1593 84q0 49 33 81t82 32q47 0 78 -34t31 -81q0 -43 -33 -76t-76 -33q-47 0 -81 32 t-34 79z" />
<glyph unicode="&#x202a;" horiz-adv-x="0" />
<glyph unicode="&#x202f;" horiz-adv-x="370" />
<glyph unicode="&#x2030;" horiz-adv-x="2826" d="M473 967q0 168 123 320.5t287 152.5q66 0 117 -22.5t80.5 -48.5t84 -48.5t123.5 -22.5q201 0 377 199h68l-979 -1647h-84l866 1463l-4 4q-147 -80 -240 -80q-45 0 -159 37q23 -72 22 -141q0 -168 -104.5 -329t-262.5 -161q-139 0 -227 92.5t-88 231.5zM627 897 q0 -76 43 -134t116 -58q94 0 168 81.5t107 183t33 191.5q0 86 -43 151.5t-125 65.5q-86 0 -159 -90t-106.5 -198.5t-33.5 -192.5zM1268 215q0 178 121.5 329.5t296.5 151.5q125 0 195.5 -83t70.5 -210q0 -113 -41 -224t-130 -194t-204 -83q-135 0 -222 89t-87 224zM1421 156 q0 -76 43 -134.5t117 -58.5q137 0 223 154.5t86 302.5q0 86 -44 150.5t-126 64.5q-86 0 -158.5 -90t-106.5 -198.5t-34 -190.5zM2075 215q0 178 121.5 329.5t295.5 151.5q125 0 196 -83t71 -210q0 -113 -41 -224t-130 -194t-204 -83q-135 0 -222 89t-87 224zM2228 156 q0 -76 44 -134.5t118 -58.5q94 0 168 82t106.5 183.5t32.5 191.5q0 86 -43 150.5t-125 62.5q-86 0 -158.5 -89t-107.5 -197.5t-35 -190.5z" />
<glyph unicode="&#x2032;" horiz-adv-x="573" d="M442 811l107 471q31 137 102 137q51 0 51 -53q0 -33 -36 -125l-162 -393q-31 -80 -51 -80q-19 0 -11 43z" />
<glyph unicode="&#x2033;" horiz-adv-x="1146" d="M1015 811l107 471q31 137 102 137q51 0 51 -53q0 -33 -36 -125l-162 -393q-31 -80 -51 -80q-19 0 -11 43zM442 811l107 471q31 137 102 137q51 0 51 -53q0 -33 -36 -125l-162 -393q-31 -80 -51 -80q-19 0 -11 43z" />
<glyph unicode="&#x2034;" horiz-adv-x="1720" d="M1589 811l107 471q31 137 102 137q51 0 51 -53q0 -33 -36 -125l-162 -393q-31 -80 -51 -80q-19 0 -11 43zM1015 811l107 471q31 137 102 137q51 0 51 -53q0 -33 -36 -125l-162 -393q-31 -80 -51 -80q-19 0 -11 43zM442 811l107 471q31 137 102 137q51 0 51 -53 q0 -33 -36 -125l-162 -393q-31 -80 -51 -80q-19 0 -11 43z" />
<glyph unicode="&#x2035;" horiz-adv-x="696" d="M510 1303q0 27 19.5 49t45.5 22q14 0 31 -8t33 -23.5t27.5 -26.5t28 -31.5t20.5 -24.5l164 -189h-58l-235 148q-2 2 -11.5 7t-13.5 8t-12 8t-12.5 9t-10.5 11.5t-9 12.5t-5 12.5t-2 15.5z" />
<glyph unicode="&#x2036;" horiz-adv-x="1392" d="M1206 1303q0 27 19.5 49t45.5 22q14 0 31 -8t33 -23.5t27.5 -26.5t28 -31.5t20.5 -24.5l164 -189h-58l-235 148q-2 2 -11.5 7t-13.5 8t-12 8t-12.5 9t-10.5 11.5t-9 12.5t-5 12.5t-2 15.5zM510 1303q0 27 19.5 49t45.5 22q14 0 31 -8t33 -23.5t27.5 -26.5t28 -31.5 t20.5 -24.5l164 -189h-58l-235 148q-2 2 -11.5 7t-13.5 8t-12 8t-12.5 9t-10.5 11.5t-9 12.5t-5 12.5t-2 15.5z" />
<glyph unicode="&#x2037;" horiz-adv-x="2088" d="M1903 1303q0 27 19.5 49t45.5 22q14 0 31 -8t33 -23.5t27.5 -26.5t28 -31.5t20.5 -24.5l164 -189h-58l-235 148q-2 2 -11.5 7t-13.5 8t-12 8t-12.5 9t-10.5 11.5t-9 12.5t-5 12.5t-2 15.5zM1206 1303q0 27 19.5 49t45.5 22q14 0 31 -8t33 -23.5t27.5 -26.5t28 -31.5 t20.5 -24.5l164 -189h-58l-235 148q-2 2 -11.5 7t-13.5 8t-12 8t-12.5 9t-10.5 11.5t-9 12.5t-5 12.5t-2 15.5zM510 1303q0 27 19.5 49t45.5 22q14 0 31 -8t33 -23.5t27.5 -26.5t28 -31.5t20.5 -24.5l164 -189h-58l-235 148q-2 2 -11.5 7t-13.5 8t-12 8t-12.5 9t-10.5 11.5 t-9 12.5t-5 12.5t-2 15.5z" />
<glyph unicode="&#x2039;" horiz-adv-x="655" d="M317 414l324 260q2 0 12.5 10t21.5 17.5t15 7.5q14 0 15 -15q0 -8 -39 -47l-224 -237l129 -244q10 -14 11 -27q0 -14 -13 -14q-6 0 -26 20z" />
<glyph unicode="&#x203a;" horiz-adv-x="655" d="M221 139q0 10 37 47l223 240l-129 242q-10 20 -10 28q0 12 14.5 12.5t24.5 -20.5l225 -268l-323 -258q-4 -6 -23.5 -21.5t-26.5 -15.5q-12 0 -12 14z" />
<glyph unicode="&#x203c;" horiz-adv-x="1228" d="M847 84q0 49 34 81t83 32q45 0 76 -34t31 -79t-33 -78t-78 -33q-47 0 -80 33t-33 78zM1028 424l123 704q0 6 7 52.5t13 68t20.5 56t37 50t55.5 15.5q41 0 66.5 -25.5t25.5 -64.5q0 -68 -152 -471l-149 -399zM233 84q0 49 34 81t83 32q45 0 76 -34t31 -79t-33 -78t-78 -33 q-47 0 -80 33t-33 78zM414 424l123 704q0 6 7 52.5t13 68t20.5 56t37 50t55.5 15.5q41 0 66.5 -25.5t25.5 -64.5q0 -68 -152 -471l-149 -399z" />
<glyph unicode="&#x2044;" horiz-adv-x="245" d="M-217 0l979 1370h84l-979 -1370h-84z" />
<glyph unicode="&#x2215;" horiz-adv-x="245" d="M-217 0l979 1370h84l-979 -1370h-84z" />
<glyph unicode="&#x2047;" horiz-adv-x="1802" d="M1352 1137q0 106 77.5 169.5t188.5 63.5q137 0 230 -86t93 -221q0 -158 -200 -332l-68 -57q-6 -6 -31.5 -27.5t-45 -39t-42 -41t-35 -45t-12.5 -40.5q0 -27 18.5 -43t47.5 -16q61 0 129 59l33 -32q-82 -88 -183 -89q-70 0 -112.5 48.5t-42.5 115.5q0 100 127 219l114 105 q109 100 140 153t30 109q0 94 -53 146.5t-147 52.5q-78 0 -136.5 -45t-58.5 -121q0 -47 34 -87t81 -40q39 0 39 24q0 4 -19.5 28t-19.5 52.5t20.5 48t48.5 19.5q37 0 60.5 -25.5t23.5 -62.5q0 -59 -48 -97t-107 -38q-76 0 -125 49t-49 123zM1354 84q0 49 33.5 81t84.5 32 q45 0 75 -34t30 -79t-33 -78t-78 -33q-47 0 -79.5 33t-32.5 78zM451 1137q0 106 77.5 169.5t188.5 63.5q137 0 230 -86t93 -221q0 -158 -200 -332l-68 -57q-6 -6 -31.5 -27.5t-45 -39t-42 -41t-35 -45t-12.5 -40.5q0 -27 18.5 -43t47.5 -16q61 0 129 59l33 -32 q-82 -88 -183 -89q-70 0 -112.5 48.5t-42.5 115.5q0 100 127 219l114 105q109 100 140 153t30 109q0 94 -53 146.5t-147 52.5q-78 0 -136.5 -45t-58.5 -121q0 -47 34 -87t81 -40q39 0 39 24q0 4 -19.5 28t-19.5 52.5t20.5 48t48.5 19.5q37 0 60.5 -25.5t23.5 -62.5 q0 -59 -48 -97t-107 -38q-76 0 -125 49t-49 123zM453 84q0 49 33.5 81t84.5 32q45 0 75 -34t30 -79t-33 -78t-78 -33q-47 0 -79.5 33t-32.5 78z" />
<glyph unicode="&#x2048;" horiz-adv-x="1515" d="M1134 84q0 49 34 81t83 32q45 0 76 -34t31 -79t-33 -78t-78 -33q-47 0 -80 33t-33 78zM1315 424l123 704q0 6 7 52.5t13 68t20.5 56t37 50t55.5 15.5q41 0 66.5 -25.5t25.5 -64.5q0 -68 -152 -471l-149 -399zM451 1137q0 106 77.5 169.5t188.5 63.5q137 0 230 -86 t93 -221q0 -158 -200 -332l-68 -57q-6 -6 -31.5 -27.5t-45 -39t-42 -41t-35 -45t-12.5 -40.5q0 -27 18.5 -43t47.5 -16q61 0 129 59l33 -32q-82 -88 -183 -89q-70 0 -112.5 48.5t-42.5 115.5q0 100 127 219l114 105q109 100 140 153t30 109q0 94 -53 146.5t-147 52.5 q-78 0 -136.5 -45t-58.5 -121q0 -47 34 -87t81 -40q39 0 39 24q0 4 -19.5 28t-19.5 52.5t20.5 48t48.5 19.5q37 0 60.5 -25.5t23.5 -62.5q0 -59 -48 -97t-107 -38q-76 0 -125 49t-49 123zM453 84q0 49 33.5 81t84.5 32q45 0 75 -34t30 -79t-33 -78t-78 -33q-47 0 -79.5 33 t-32.5 78z" />
<glyph unicode="&#x2049;" horiz-adv-x="1515" d="M1065 1137q0 106 77.5 169.5t188.5 63.5q137 0 230 -86t93 -221q0 -158 -200 -332l-68 -57q-6 -6 -31.5 -27.5t-45 -39t-42 -41t-35 -45t-12.5 -40.5q0 -27 18.5 -43t47.5 -16q61 0 129 59l33 -32q-82 -88 -183 -89q-70 0 -112.5 48.5t-42.5 115.5q0 100 127 219l114 105 q109 100 140 153t30 109q0 94 -53 146.5t-147 52.5q-78 0 -136.5 -45t-58.5 -121q0 -47 34 -87t81 -40q39 0 39 24q0 4 -19.5 28t-19.5 52.5t20.5 48t48.5 19.5q37 0 60.5 -25.5t23.5 -62.5q0 -59 -48 -97t-107 -38q-76 0 -125 49t-49 123zM1067 84q0 49 33.5 81t84.5 32 q45 0 75 -34t30 -79t-33 -78t-78 -33q-47 0 -79.5 33t-32.5 78zM233 84q0 49 34 81t83 32q45 0 76 -34t31 -79t-33 -78t-78 -33q-47 0 -80 33t-33 78zM414 424l123 704q0 6 7 52.5t13 68t20.5 56t37 50t55.5 15.5q41 0 66.5 -25.5t25.5 -64.5q0 -68 -152 -471l-149 -399z " />
<glyph unicode="&#x2057;" horiz-adv-x="2293" d="M2162 811l107 471q31 137 102 137q51 0 51 -53q0 -33 -36 -125l-162 -393q-31 -80 -51 -80q-19 0 -11 43zM1589 811l107 471q31 137 102 137q51 0 51 -53q0 -33 -36 -125l-162 -393q-31 -80 -51 -80q-19 0 -11 43zM1015 811l107 471q31 137 102 137q51 0 51 -53 q0 -33 -36 -125l-162 -393q-31 -80 -51 -80q-19 0 -11 43zM442 811l107 471q31 137 102 137q51 0 51 -53q0 -33 -36 -125l-162 -393q-31 -80 -51 -80q-19 0 -11 43z" />
<glyph unicode="&#x205f;" horiz-adv-x="462" />
<glyph unicode="&#x2060;" horiz-adv-x="0" />
<glyph unicode="&#x20a8;" horiz-adv-x="2007" d="M1440 139q0 76 53 76q25 0 43.5 -17.5t18.5 -43.5q0 -10 -3 -29t-3 -27q0 -41 39.5 -60.5t87.5 -19.5q76 0 127 40t51 114q0 59 -59.5 140t-119 168t-59.5 161q0 113 83 177.5t200 64.5q72 0 135 -32t63 -97q0 -23 -14 -38.5t-37 -15.5q-35 0 -47 21.5t-10 47.5 t-18.5 47.5t-69.5 21.5q-55 0 -96 -35t-41 -90q0 -47 36.5 -105.5t80.5 -107.5t81 -120q39 -75 39 -144q0 -123 -89 -192q-91 -71 -224 -71q-92 0 -170 41t-78 125zM66 -4l10 45h26q49 0 80 6q39 8 64.5 41t35 61.5t29.5 100.5l221 827q39 133 39 158q0 23 -12 38 t-38.5 22.5t-43 9.5t-50.5 2h-36l12 45q41 0 129.5 -3t133.5 -6q43 0 124.5 4.5t124.5 4.5q23 1 46 0q45 0 88 -2q63 -4 135.5 -22.5t125 -49.5t87.5 -89.5t35 -135.5q0 -92 -50.5 -163t-133.5 -112t-166 -63.5t-169 -30.5v-4q162 -45 216.5 -128t58.5 -257q2 -47 4 -76 t13.5 -73t37 -67.5t66.5 -23.5q27 0 52 14.5t38.5 28t38.5 39.5l37 -22q-39 -61 -115 -101.5t-152 -40.5q-115 0 -169 79q-50 73 -50 178v16l8 192q0 139 -56 182.5t-200 43.5q-20 0 -62 -2.5t-63 -2.5l-106 -393q-2 -8 -13.5 -45t-18.5 -67.5t-7 -44.5q0 -16 5 -28.5 t17.5 -19t24.5 -11.5t31.5 -6t33 -2t34.5 -1h32l-14 -45q-39 0 -135.5 3t-149.5 5q-47 0 -142 -4t-142 -4zM629 707q268 8 375 45q102 35 162.5 115.5t60.5 189.5q0 131 -80 190.5t-213 59.5q-106 0 -137 -33q-20 -23 -41 -100z" />
<glyph unicode="&#x2122;" horiz-adv-x="1638" d="M272 1174v169h598v-169h-45q0 78 -30.5 100t-110.5 22h-55v-561q0 -23 15 -36t33.5 -15t51.5 -4v-39h-315v39q35 2 52 5t32.5 15.5t15.5 34.5v561h-41q-47 0 -69.5 -2t-46 -13t-32 -36.5t-8.5 -70.5h-45zM963 641v39q35 2 52 5t32.5 15.5t15.5 34.5v543q0 4 -1 8t-4 7 l-5 5q-2 2 -7.5 3.5t-8.5 2.5t-10 1h-11h-11h-12v38h205l217 -518l207 518h223v-38q-29 0 -43 -2.5t-24.5 -9.5t-10.5 -21v-508q0 -53 15.5 -67.5t72.5 -16.5v-39h-290v39q57 2 72.5 16.5t15.5 67.5v502h-15l-245 -625h-17l-250 625h-14v-531q0 -23 15.5 -35t33 -15t51.5 -5 v-39h-249z" />
<glyph unicode="&#x2260;" d="M152 -395l907 1695h115l-907 -1695h-115zM209 264v109h907v-109h-907zM209 532v109h907v-109h-907z" />
<glyph unicode="&#xe000;" horiz-adv-x="885" d="M0 885h885v-885h-885v885z" />
<glyph unicode="&#xfb01;" horiz-adv-x="1105" d="M-215 -440q0 27 14.5 45t38.5 18q41 0 64 -69q16 -61 57 -62q82 0 156 146q57 117 123 352l229 821h-252l12 45h252q31 94 54.5 153.5t68.5 139.5t93 125t122 78.5t164 33.5q68 0 136.5 -28.5t68.5 -87.5q0 -25 -16.5 -41.5t-41.5 -16.5q-45 0 -67 66q-14 43 -30.5 53 t-63.5 10t-87 -16t-71 -52t-54.5 -69t-45 -89t-32.5 -88t-28.5 -93.5t-23.5 -77.5h485l-141 -496q-63 -211 -64 -260q0 -66 25 -65q18 0 40.5 20.5t48 59.5t42 66.5t41.5 72.5l24 47l41 -20q-147 -307 -286 -308q-53 0 -88 39t-35 94q0 29 35 152l135 475q0 2 5 16.5t8 28 t3 17.5q0 6 -4 10t-11 6t-13.5 2t-14.5 -1t-10 -1h-281l-157 -555q-10 -35 -26.5 -105.5t-27.5 -105.5q-23 -84 -41 -146.5t-58 -154.5t-85 -150.5t-114.5 -102.5t-149.5 -44q-59 0 -112.5 29t-53.5 84z" />
<glyph unicode="&#xfb02;" horiz-adv-x="1187" d="M-215 -430q0 27 18.5 43t44.5 16q29 0 44.5 -21.5t19.5 -47t19.5 -47t41.5 -21.5q25 0 49.5 15.5t46 45t42 63.5t39 80t33 84t28.5 86t22.5 77.5t18.5 66.5t12 43l213 756h-227l12 45h227q2 6 17.5 47t19.5 52.5t18.5 48t21.5 52t22.5 46t27 48t26.5 41t32 42.5 q90 100 174 131t231 35l238 12l-295 -940q-84 -274 -84 -369q0 -66 35 -65q72 0 219 272l45 -20q-90 -176 -150 -238q-76 -76 -159 -76q-68 0 -106 40t-38 108q0 84 78 311l172 551q84 276 84 303q0 35 -40 50.5t-83 15.5q-55 0 -102 -28t-77 -59.5t-62.5 -100t-45 -101.5 t-38 -116t-29.5 -93h209l-14 -45h-207l-195 -692q-18 -68 -29.5 -109t-39 -118.5t-52 -130t-63.5 -117t-80 -102.5t-97.5 -65.5t-117.5 -27.5q-55 0 -112.5 35t-57.5 88z" />
</font>
</defs>
</svg>
